<svg width="600" height="735" viewBox="0 0 600 735" fill="none" xmlns="http://www.w3.org/2000/svg">
<rect x="45" y="30" width="15" height="15" fill="#F99700"/>
<rect x="60" y="30" width="15" height="15" fill="#F99700"/>
<rect x="75" y="30" width="15" height="15" fill="#F99700"/>
<rect x="90" y="30" width="15" height="15" fill="#F99700"/>
<rect x="105" y="30" width="15" height="15" fill="#F99700"/>
<rect x="120" y="30" width="15" height="15" fill="#F99700"/>
<rect x="135" y="30" width="15" height="15" fill="#F99700"/>
<rect x="150" y="30" width="15" height="15" fill="#F99700"/>
<rect x="165" y="30" width="15" height="15" fill="#F99700"/>
<rect x="180" y="30" width="15" height="15" fill="#F99700"/>
<rect x="195" y="30" width="15" height="15" fill="#F99700"/>
<rect x="210" y="30" width="15" height="15" fill="#F99700"/>
<rect x="225" y="30" width="15" height="15" fill="#F99700"/>
<rect x="240" y="30" width="15" height="15" fill="#F99700"/>
<rect x="255" y="30" width="15" height="15" fill="#F99700"/>
<rect x="270" y="30" width="15" height="15" fill="#F99700"/>
<rect x="285" y="30" width="15" height="15" fill="#F99700"/>
<rect x="300" y="30" width="15" height="15" fill="#F99700"/>
<rect x="315" y="30" width="15" height="15" fill="#F99700"/>
<rect x="330" y="30" width="15" height="15" fill="#F99700"/>
<rect x="345" y="30" width="15" height="15" fill="#F99700"/>
<rect x="360" y="30" width="15" height="15" fill="#F99700"/>
<rect x="375" y="30" width="15" height="15" fill="#F99700"/>
<rect x="390" y="30" width="15" height="15" fill="#F99700"/>
<rect x="405" y="30" width="15" height="15" fill="#F99700"/>
<rect x="420" y="30" width="15" height="15" fill="#F99700"/>
<rect x="435" y="30" width="15" height="15" fill="#F99700"/>
<rect x="450" y="30" width="15" height="15" fill="#F99700"/>
<rect x="465" y="30" width="15" height="15" fill="#F99700"/>
<rect x="480" y="30" width="15" height="15" fill="#F99700"/>
<rect x="495" y="30" width="15" height="15" fill="#F99700"/>
<rect x="510" y="30" width="15" height="15" fill="#F99700"/>
<rect x="525" y="30" width="15" height="15" fill="#F99700"/>
<rect x="540" y="30" width="15" height="15" fill="#F99700"/>
<rect x="30" y="45" width="15" height="15" fill="#F99700"/>
<rect x="45" y="45" width="15" height="15" fill="#F99700"/>
<rect x="60" y="45" width="15" height="15" fill="#F99700"/>
<rect x="75" y="45" width="15" height="15" fill="#F99700"/>
<rect x="90" y="45" width="15" height="15" fill="#F99700"/>
<rect x="105" y="45" width="15" height="15" fill="#F99700"/>
<rect x="120" y="45" width="15" height="15" fill="#F99700"/>
<rect x="135" y="45" width="15" height="15" fill="#F99700"/>
<rect x="150" y="45" width="15" height="15" fill="#F99700"/>
<rect x="165" y="45" width="15" height="15" fill="#F99700"/>
<rect x="180" y="45" width="15" height="15" fill="#F99700"/>
<rect x="195" y="45" width="15" height="15" fill="#F99700"/>
<rect x="210" y="45" width="15" height="15" fill="#F99700"/>
<rect x="225" y="45" width="15" height="15" fill="#F99700"/>
<rect x="240" y="45" width="15" height="15" fill="#F99700"/>
<rect x="255" y="45" width="15" height="15" fill="#F99700"/>
<rect x="270" y="45" width="15" height="15" fill="#F99700"/>
<rect x="285" y="45" width="15" height="15" fill="#F99700"/>
<rect x="300" y="45" width="15" height="15" fill="#F99700"/>
<rect x="315" y="45" width="15" height="15" fill="#F99700"/>
<rect x="330" y="45" width="15" height="15" fill="#F99700"/>
<rect x="345" y="45" width="15" height="15" fill="#F99700"/>
<rect x="360" y="45" width="15" height="15" fill="#F99700"/>
<rect x="375" y="45" width="15" height="15" fill="#F99700"/>
<rect x="390" y="45" width="15" height="15" fill="#F99700"/>
<rect x="405" y="45" width="15" height="15" fill="#F99700"/>
<rect x="420" y="45" width="15" height="15" fill="#F99700"/>
<rect x="435" y="45" width="15" height="15" fill="#F99700"/>
<rect x="450" y="45" width="15" height="15" fill="#F99700"/>
<rect x="465" y="45" width="15" height="15" fill="#F99700"/>
<rect x="480" y="45" width="15" height="15" fill="#F99700"/>
<rect x="495" y="45" width="15" height="15" fill="#F99700"/>
<rect x="510" y="45" width="15" height="15" fill="#F99700"/>
<rect x="525" y="45" width="15" height="15" fill="#F99700"/>
<rect x="540" y="45" width="15" height="15" fill="#F99700"/>
<rect x="555" y="45" width="15" height="15" fill="#F99700"/>
<rect x="30" y="60" width="15" height="15" fill="#F99700"/>
<rect x="45" y="60" width="15" height="15" fill="#F99700"/>
<rect x="540" y="60" width="15" height="15" fill="#F99700"/>
<rect x="555" y="60" width="15" height="15" fill="#F99700"/>
<rect x="30" y="75" width="15" height="15" fill="#F99700"/>
<rect x="45" y="75" width="15" height="15" fill="#F99700"/>
<rect x="540" y="75" width="15" height="15" fill="#F99700"/>
<rect x="555" y="75" width="15" height="15" fill="#F99700"/>
<rect x="30" y="90" width="15" height="15" fill="#F99700"/>
<rect x="45" y="90" width="15" height="15" fill="#F99700"/>
<rect x="540" y="90" width="15" height="15" fill="#F99700"/>
<rect x="555" y="90" width="15" height="15" fill="#F99700"/>
<rect x="30" y="105" width="15" height="15" fill="#F99700"/>
<rect x="45" y="105" width="15" height="15" fill="#F99700"/>
<rect x="540" y="105" width="15" height="15" fill="#F99700"/>
<rect x="555" y="105" width="15" height="15" fill="#F99700"/>
<rect x="30" y="120" width="15" height="15" fill="#F99700"/>
<rect x="45" y="120" width="15" height="15" fill="#F99700"/>
<rect x="540" y="120" width="15" height="15" fill="#F99700"/>
<rect x="555" y="120" width="15" height="15" fill="#F99700"/>
<rect x="30" y="135" width="15" height="15" fill="#F99700"/>
<rect x="45" y="135" width="15" height="15" fill="#F99700"/>
<rect x="285" y="135" width="15" height="15" fill="#F99700"/>
<rect x="300" y="135" width="15" height="15" fill="#F99700"/>
<rect x="540" y="135" width="15" height="15" fill="#F99700"/>
<rect x="555" y="135" width="15" height="15" fill="#F99700"/>
<rect x="30" y="150" width="15" height="15" fill="#F99700"/>
<rect x="45" y="150" width="15" height="15" fill="#F99700"/>
<rect x="225" y="150" width="15" height="15" fill="#F99700"/>
<rect x="240" y="150" width="15" height="15" fill="#F99700"/>
<rect x="255" y="150" width="15" height="15" fill="#F99700"/>
<rect x="270" y="150" width="15" height="15" fill="#F99700"/>
<rect x="285" y="150" width="15" height="15" fill="#F99700"/>
<rect x="300" y="150" width="15" height="15" fill="#F99700"/>
<rect x="315" y="150" width="15" height="15" fill="#F99700"/>
<rect x="330" y="150" width="15" height="15" fill="#F99700"/>
<rect x="345" y="150" width="15" height="15" fill="#F99700"/>
<rect x="360" y="150" width="15" height="15" fill="#F99700"/>
<rect x="540" y="150" width="15" height="15" fill="#F99700"/>
<rect x="555" y="150" width="15" height="15" fill="#F99700"/>
<rect x="30" y="165" width="15" height="15" fill="#F99700"/>
<rect x="45" y="165" width="15" height="15" fill="#F99700"/>
<rect x="210" y="165" width="15" height="15" fill="#F99700"/>
<rect x="225" y="165" width="15" height="15" fill="#F99700"/>
<rect x="240" y="165" width="15" height="15" fill="#F99700"/>
<rect x="255" y="165" width="15" height="15" fill="#F99700"/>
<rect x="270" y="165" width="15" height="15" fill="#F99700"/>
<rect x="285" y="165" width="15" height="15" fill="#F99700"/>
<rect x="300" y="165" width="15" height="15" fill="#F99700"/>
<rect x="315" y="165" width="15" height="15" fill="#F99700"/>
<rect x="330" y="165" width="15" height="15" fill="#F99700"/>
<rect x="345" y="165" width="15" height="15" fill="#F99700"/>
<rect x="360" y="165" width="15" height="15" fill="#F99700"/>
<rect x="375" y="165" width="15" height="15" fill="#F99700"/>
<rect x="390" y="165" width="15" height="15" fill="#F99700"/>
<rect x="540" y="165" width="15" height="15" fill="#F99700"/>
<rect x="555" y="165" width="15" height="15" fill="#F99700"/>
<rect x="30" y="180" width="15" height="15" fill="#F99700"/>
<rect x="45" y="180" width="15" height="15" fill="#F99700"/>
<rect x="195" y="180" width="15" height="15" fill="#F99700"/>
<rect x="210" y="180" width="15" height="15" fill="#F99700"/>
<rect x="225" y="180" width="15" height="15" fill="#F99700"/>
<rect x="240" y="180" width="15" height="15" fill="#F99700"/>
<rect x="255" y="180" width="15" height="15" fill="#F99700"/>
<rect x="285" y="180" width="15" height="15" fill="#F99700"/>
<rect x="300" y="180" width="15" height="15" fill="#F99700"/>
<rect x="330" y="180" width="15" height="15" fill="#F99700"/>
<rect x="345" y="180" width="15" height="15" fill="#F99700"/>
<rect x="360" y="180" width="15" height="15" fill="#F99700"/>
<rect x="375" y="180" width="15" height="15" fill="#F99700"/>
<rect x="390" y="180" width="15" height="15" fill="#F99700"/>
<rect x="405" y="180" width="15" height="15" fill="#F99700"/>
<rect x="540" y="180" width="15" height="15" fill="#F99700"/>
<rect x="555" y="180" width="15" height="15" fill="#F99700"/>
<rect x="30" y="195" width="15" height="15" fill="#F99700"/>
<rect x="45" y="195" width="15" height="15" fill="#F99700"/>
<rect x="180" y="195" width="15" height="15" fill="#F99700"/>
<rect x="195" y="195" width="15" height="15" fill="#F99700"/>
<rect x="210" y="195" width="15" height="15" fill="#F99700"/>
<rect x="225" y="195" width="15" height="15" fill="#F99700"/>
<rect x="240" y="195" width="15" height="15" fill="#F99700"/>
<rect x="255" y="195" width="15" height="15" fill="#F99700"/>
<rect x="285" y="195" width="15" height="15" fill="#F99700"/>
<rect x="300" y="195" width="15" height="15" fill="#F99700"/>
<rect x="330" y="195" width="15" height="15" fill="#F99700"/>
<rect x="345" y="195" width="15" height="15" fill="#F99700"/>
<rect x="360" y="195" width="15" height="15" fill="#F99700"/>
<rect x="390" y="195" width="15" height="15" fill="#F99700"/>
<rect x="405" y="195" width="15" height="15" fill="#F99700"/>
<rect x="540" y="195" width="15" height="15" fill="#F99700"/>
<rect x="555" y="195" width="15" height="15" fill="#F99700"/>
<rect x="30" y="210" width="15" height="15" fill="#F99700"/>
<rect x="45" y="210" width="15" height="15" fill="#F99700"/>
<rect x="165" y="210" width="15" height="15" fill="#F99700"/>
<rect x="180" y="210" width="15" height="15" fill="#F99700"/>
<rect x="195" y="210" width="15" height="15" fill="#F99700"/>
<rect x="225" y="210" width="15" height="15" fill="#F99700"/>
<rect x="240" y="210" width="15" height="15" fill="#F99700"/>
<rect x="285" y="210" width="15" height="15" fill="#F99700"/>
<rect x="300" y="210" width="15" height="15" fill="#F99700"/>
<rect x="345" y="210" width="15" height="15" fill="#F99700"/>
<rect x="360" y="210" width="15" height="15" fill="#F99700"/>
<rect x="390" y="210" width="15" height="15" fill="#F99700"/>
<rect x="405" y="210" width="15" height="15" fill="#F99700"/>
<rect x="420" y="210" width="15" height="15" fill="#F99700"/>
<rect x="540" y="210" width="15" height="15" fill="#F99700"/>
<rect x="555" y="210" width="15" height="15" fill="#F99700"/>
<rect x="30" y="225" width="15" height="15" fill="#F99700"/>
<rect x="45" y="225" width="15" height="15" fill="#F99700"/>
<rect x="150" y="225" width="15" height="15" fill="#F99700"/>
<rect x="165" y="225" width="15" height="15" fill="#F99700"/>
<rect x="180" y="225" width="15" height="15" fill="#F99700"/>
<rect x="225" y="225" width="15" height="15" fill="#F99700"/>
<rect x="240" y="225" width="15" height="15" fill="#F99700"/>
<rect x="285" y="225" width="15" height="15" fill="#F99700"/>
<rect x="300" y="225" width="15" height="15" fill="#F99700"/>
<rect x="345" y="225" width="15" height="15" fill="#F99700"/>
<rect x="360" y="225" width="15" height="15" fill="#F99700"/>
<rect x="375" y="225" width="15" height="15" fill="#F99700"/>
<rect x="405" y="225" width="15" height="15" fill="#F99700"/>
<rect x="420" y="225" width="15" height="15" fill="#F99700"/>
<rect x="435" y="225" width="15" height="15" fill="#F99700"/>
<rect x="540" y="225" width="15" height="15" fill="#F99700"/>
<rect x="555" y="225" width="15" height="15" fill="#F99700"/>
<rect x="30" y="240" width="15" height="15" fill="#F99700"/>
<rect x="45" y="240" width="15" height="15" fill="#F99700"/>
<rect x="150" y="240" width="15" height="15" fill="#F99700"/>
<rect x="165" y="240" width="15" height="15" fill="#F99700"/>
<rect x="180" y="240" width="15" height="15" fill="#F99700"/>
<rect x="210" y="240" width="15" height="15" fill="#F99700"/>
<rect x="225" y="240" width="15" height="15" fill="#F99700"/>
<rect x="240" y="240" width="15" height="15" fill="#F99700"/>
<rect x="285" y="240" width="15" height="15" fill="#F99700"/>
<rect x="300" y="240" width="15" height="15" fill="#F99700"/>
<rect x="345" y="240" width="15" height="15" fill="#F99700"/>
<rect x="360" y="240" width="15" height="15" fill="#F99700"/>
<rect x="375" y="240" width="15" height="15" fill="#F99700"/>
<rect x="420" y="240" width="15" height="15" fill="#F99700"/>
<rect x="435" y="240" width="15" height="15" fill="#F99700"/>
<rect x="540" y="240" width="15" height="15" fill="#F99700"/>
<rect x="555" y="240" width="15" height="15" fill="#F99700"/>
<rect x="30" y="255" width="15" height="15" fill="#F99700"/>
<rect x="45" y="255" width="15" height="15" fill="#F99700"/>
<rect x="150" y="255" width="15" height="15" fill="#F99700"/>
<rect x="165" y="255" width="15" height="15" fill="#F99700"/>
<rect x="210" y="255" width="15" height="15" fill="#F99700"/>
<rect x="225" y="255" width="15" height="15" fill="#F99700"/>
<rect x="240" y="255" width="15" height="15" fill="#F99700"/>
<rect x="285" y="255" width="15" height="15" fill="#F99700"/>
<rect x="300" y="255" width="15" height="15" fill="#F99700"/>
<rect x="360" y="255" width="15" height="15" fill="#F99700"/>
<rect x="375" y="255" width="15" height="15" fill="#F99700"/>
<rect x="420" y="255" width="15" height="15" fill="#F99700"/>
<rect x="435" y="255" width="15" height="15" fill="#F99700"/>
<rect x="540" y="255" width="15" height="15" fill="#F99700"/>
<rect x="555" y="255" width="15" height="15" fill="#F99700"/>
<rect x="30" y="270" width="15" height="15" fill="#F99700"/>
<rect x="45" y="270" width="15" height="15" fill="#F99700"/>
<rect x="150" y="270" width="15" height="15" fill="#F99700"/>
<rect x="165" y="270" width="15" height="15" fill="#F99700"/>
<rect x="210" y="270" width="15" height="15" fill="#F99700"/>
<rect x="225" y="270" width="15" height="15" fill="#F99700"/>
<rect x="240" y="270" width="15" height="15" fill="#F99700"/>
<rect x="285" y="270" width="15" height="15" fill="#F99700"/>
<rect x="300" y="270" width="15" height="15" fill="#F99700"/>
<rect x="360" y="270" width="15" height="15" fill="#F99700"/>
<rect x="375" y="270" width="15" height="15" fill="#F99700"/>
<rect x="420" y="270" width="15" height="15" fill="#F99700"/>
<rect x="435" y="270" width="15" height="15" fill="#F99700"/>
<rect x="450" y="270" width="15" height="15" fill="#F99700"/>
<rect x="540" y="270" width="15" height="15" fill="#F99700"/>
<rect x="555" y="270" width="15" height="15" fill="#F99700"/>
<rect x="30" y="285" width="15" height="15" fill="#F99700"/>
<rect x="45" y="285" width="15" height="15" fill="#F99700"/>
<rect x="150" y="285" width="15" height="15" fill="#F99700"/>
<rect x="165" y="285" width="15" height="15" fill="#F99700"/>
<rect x="180" y="285" width="15" height="15" fill="#F99700"/>
<rect x="195" y="285" width="15" height="15" fill="#F99700"/>
<rect x="210" y="285" width="15" height="15" fill="#F99700"/>
<rect x="225" y="285" width="15" height="15" fill="#F99700"/>
<rect x="240" y="285" width="15" height="15" fill="#F99700"/>
<rect x="255" y="285" width="15" height="15" fill="#F99700"/>
<rect x="270" y="285" width="15" height="15" fill="#F99700"/>
<rect x="285" y="285" width="15" height="15" fill="#F99700"/>
<rect x="300" y="285" width="15" height="15" fill="#F99700"/>
<rect x="315" y="285" width="15" height="15" fill="#F99700"/>
<rect x="330" y="285" width="15" height="15" fill="#F99700"/>
<rect x="345" y="285" width="15" height="15" fill="#F99700"/>
<rect x="360" y="285" width="15" height="15" fill="#F99700"/>
<rect x="375" y="285" width="15" height="15" fill="#F99700"/>
<rect x="390" y="285" width="15" height="15" fill="#F99700"/>
<rect x="405" y="285" width="15" height="15" fill="#F99700"/>
<rect x="420" y="285" width="15" height="15" fill="#F99700"/>
<rect x="435" y="285" width="15" height="15" fill="#F99700"/>
<rect x="450" y="285" width="15" height="15" fill="#F99700"/>
<rect x="540" y="285" width="15" height="15" fill="#F99700"/>
<rect x="555" y="285" width="15" height="15" fill="#F99700"/>
<rect x="30" y="300" width="15" height="15" fill="#F99700"/>
<rect x="45" y="300" width="15" height="15" fill="#F99700"/>
<rect x="150" y="300" width="15" height="15" fill="#F99700"/>
<rect x="165" y="300" width="15" height="15" fill="#F99700"/>
<rect x="180" y="300" width="15" height="15" fill="#F99700"/>
<rect x="195" y="300" width="15" height="15" fill="#F99700"/>
<rect x="210" y="300" width="15" height="15" fill="#F99700"/>
<rect x="225" y="300" width="15" height="15" fill="#F99700"/>
<rect x="240" y="300" width="15" height="15" fill="#F99700"/>
<rect x="255" y="300" width="15" height="15" fill="#F99700"/>
<rect x="270" y="300" width="15" height="15" fill="#F99700"/>
<rect x="285" y="300" width="15" height="15" fill="#F99700"/>
<rect x="300" y="300" width="15" height="15" fill="#F99700"/>
<rect x="315" y="300" width="15" height="15" fill="#F99700"/>
<rect x="330" y="300" width="15" height="15" fill="#F99700"/>
<rect x="345" y="300" width="15" height="15" fill="#F99700"/>
<rect x="360" y="300" width="15" height="15" fill="#F99700"/>
<rect x="375" y="300" width="15" height="15" fill="#F99700"/>
<rect x="390" y="300" width="15" height="15" fill="#F99700"/>
<rect x="405" y="300" width="15" height="15" fill="#F99700"/>
<rect x="420" y="300" width="15" height="15" fill="#F99700"/>
<rect x="435" y="300" width="15" height="15" fill="#F99700"/>
<rect x="450" y="300" width="15" height="15" fill="#F99700"/>
<rect x="540" y="300" width="15" height="15" fill="#F99700"/>
<rect x="555" y="300" width="15" height="15" fill="#F99700"/>
<rect x="30" y="315" width="15" height="15" fill="#F99700"/>
<rect x="45" y="315" width="15" height="15" fill="#F99700"/>
<rect x="150" y="315" width="15" height="15" fill="#F99700"/>
<rect x="165" y="315" width="15" height="15" fill="#F99700"/>
<rect x="210" y="315" width="15" height="15" fill="#F99700"/>
<rect x="225" y="315" width="15" height="15" fill="#F99700"/>
<rect x="240" y="315" width="15" height="15" fill="#F99700"/>
<rect x="285" y="315" width="15" height="15" fill="#F99700"/>
<rect x="300" y="315" width="15" height="15" fill="#F99700"/>
<rect x="360" y="315" width="15" height="15" fill="#F99700"/>
<rect x="375" y="315" width="15" height="15" fill="#F99700"/>
<rect x="420" y="315" width="15" height="15" fill="#F99700"/>
<rect x="435" y="315" width="15" height="15" fill="#F99700"/>
<rect x="450" y="315" width="15" height="15" fill="#F99700"/>
<rect x="540" y="315" width="15" height="15" fill="#F99700"/>
<rect x="555" y="315" width="15" height="15" fill="#F99700"/>
<rect x="30" y="330" width="15" height="15" fill="#F99700"/>
<rect x="45" y="330" width="15" height="15" fill="#F99700"/>
<rect x="150" y="330" width="15" height="15" fill="#F99700"/>
<rect x="165" y="330" width="15" height="15" fill="#F99700"/>
<rect x="210" y="330" width="15" height="15" fill="#F99700"/>
<rect x="225" y="330" width="15" height="15" fill="#F99700"/>
<rect x="240" y="330" width="15" height="15" fill="#F99700"/>
<rect x="285" y="330" width="15" height="15" fill="#F99700"/>
<rect x="300" y="330" width="15" height="15" fill="#F99700"/>
<rect x="360" y="330" width="15" height="15" fill="#F99700"/>
<rect x="375" y="330" width="15" height="15" fill="#F99700"/>
<rect x="420" y="330" width="15" height="15" fill="#F99700"/>
<rect x="435" y="330" width="15" height="15" fill="#F99700"/>
<rect x="540" y="330" width="15" height="15" fill="#F99700"/>
<rect x="555" y="330" width="15" height="15" fill="#F99700"/>
<rect x="30" y="345" width="15" height="15" fill="#F99700"/>
<rect x="45" y="345" width="15" height="15" fill="#F99700"/>
<rect x="150" y="345" width="15" height="15" fill="#F99700"/>
<rect x="165" y="345" width="15" height="15" fill="#F99700"/>
<rect x="180" y="345" width="15" height="15" fill="#F99700"/>
<rect x="225" y="345" width="15" height="15" fill="#F99700"/>
<rect x="240" y="345" width="15" height="15" fill="#F99700"/>
<rect x="285" y="345" width="15" height="15" fill="#F99700"/>
<rect x="300" y="345" width="15" height="15" fill="#F99700"/>
<rect x="345" y="345" width="15" height="15" fill="#F99700"/>
<rect x="360" y="345" width="15" height="15" fill="#F99700"/>
<rect x="375" y="345" width="15" height="15" fill="#F99700"/>
<rect x="420" y="345" width="15" height="15" fill="#F99700"/>
<rect x="435" y="345" width="15" height="15" fill="#F99700"/>
<rect x="540" y="345" width="15" height="15" fill="#F99700"/>
<rect x="555" y="345" width="15" height="15" fill="#F99700"/>
<rect x="30" y="360" width="15" height="15" fill="#F99700"/>
<rect x="45" y="360" width="15" height="15" fill="#F99700"/>
<rect x="165" y="360" width="15" height="15" fill="#F99700"/>
<rect x="180" y="360" width="15" height="15" fill="#F99700"/>
<rect x="225" y="360" width="15" height="15" fill="#F99700"/>
<rect x="240" y="360" width="15" height="15" fill="#F99700"/>
<rect x="285" y="360" width="15" height="15" fill="#F99700"/>
<rect x="300" y="360" width="15" height="15" fill="#F99700"/>
<rect x="345" y="360" width="15" height="15" fill="#F99700"/>
<rect x="360" y="360" width="15" height="15" fill="#F99700"/>
<rect x="375" y="360" width="15" height="15" fill="#F99700"/>
<rect x="405" y="360" width="15" height="15" fill="#F99700"/>
<rect x="420" y="360" width="15" height="15" fill="#F99700"/>
<rect x="435" y="360" width="15" height="15" fill="#F99700"/>
<rect x="540" y="360" width="15" height="15" fill="#F99700"/>
<rect x="555" y="360" width="15" height="15" fill="#F99700"/>
<rect x="30" y="375" width="15" height="15" fill="#F99700"/>
<rect x="45" y="375" width="15" height="15" fill="#F99700"/>
<rect x="165" y="375" width="15" height="15" fill="#F99700"/>
<rect x="180" y="375" width="15" height="15" fill="#F99700"/>
<rect x="195" y="375" width="15" height="15" fill="#F99700"/>
<rect x="225" y="375" width="15" height="15" fill="#F99700"/>
<rect x="240" y="375" width="15" height="15" fill="#F99700"/>
<rect x="285" y="375" width="15" height="15" fill="#F99700"/>
<rect x="300" y="375" width="15" height="15" fill="#F99700"/>
<rect x="345" y="375" width="15" height="15" fill="#F99700"/>
<rect x="360" y="375" width="15" height="15" fill="#F99700"/>
<rect x="390" y="375" width="15" height="15" fill="#F99700"/>
<rect x="405" y="375" width="15" height="15" fill="#F99700"/>
<rect x="420" y="375" width="15" height="15" fill="#F99700"/>
<rect x="540" y="375" width="15" height="15" fill="#F99700"/>
<rect x="555" y="375" width="15" height="15" fill="#F99700"/>
<rect x="30" y="390" width="15" height="15" fill="#F99700"/>
<rect x="45" y="390" width="15" height="15" fill="#F99700"/>
<rect x="180" y="390" width="15" height="15" fill="#F99700"/>
<rect x="195" y="390" width="15" height="15" fill="#F99700"/>
<rect x="210" y="390" width="15" height="15" fill="#F99700"/>
<rect x="225" y="390" width="15" height="15" fill="#F99700"/>
<rect x="240" y="390" width="15" height="15" fill="#F99700"/>
<rect x="255" y="390" width="15" height="15" fill="#F99700"/>
<rect x="285" y="390" width="15" height="15" fill="#F99700"/>
<rect x="300" y="390" width="15" height="15" fill="#F99700"/>
<rect x="330" y="390" width="15" height="15" fill="#F99700"/>
<rect x="345" y="390" width="15" height="15" fill="#F99700"/>
<rect x="360" y="390" width="15" height="15" fill="#F99700"/>
<rect x="375" y="390" width="15" height="15" fill="#F99700"/>
<rect x="390" y="390" width="15" height="15" fill="#F99700"/>
<rect x="405" y="390" width="15" height="15" fill="#F99700"/>
<rect x="540" y="390" width="15" height="15" fill="#F99700"/>
<rect x="555" y="390" width="15" height="15" fill="#F99700"/>
<rect x="30" y="405" width="15" height="15" fill="#F99700"/>
<rect x="45" y="405" width="15" height="15" fill="#F99700"/>
<rect x="195" y="405" width="15" height="15" fill="#F99700"/>
<rect x="210" y="405" width="15" height="15" fill="#F99700"/>
<rect x="225" y="405" width="15" height="15" fill="#F99700"/>
<rect x="240" y="405" width="15" height="15" fill="#F99700"/>
<rect x="255" y="405" width="15" height="15" fill="#F99700"/>
<rect x="270" y="405" width="15" height="15" fill="#F99700"/>
<rect x="285" y="405" width="15" height="15" fill="#F99700"/>
<rect x="300" y="405" width="15" height="15" fill="#F99700"/>
<rect x="315" y="405" width="15" height="15" fill="#F99700"/>
<rect x="330" y="405" width="15" height="15" fill="#F99700"/>
<rect x="345" y="405" width="15" height="15" fill="#F99700"/>
<rect x="360" y="405" width="15" height="15" fill="#F99700"/>
<rect x="375" y="405" width="15" height="15" fill="#F99700"/>
<rect x="390" y="405" width="15" height="15" fill="#F99700"/>
<rect x="540" y="405" width="15" height="15" fill="#F99700"/>
<rect x="555" y="405" width="15" height="15" fill="#F99700"/>
<rect x="30" y="420" width="15" height="15" fill="#F99700"/>
<rect x="45" y="420" width="15" height="15" fill="#F99700"/>
<rect x="210" y="420" width="15" height="15" fill="#F99700"/>
<rect x="225" y="420" width="15" height="15" fill="#F99700"/>
<rect x="240" y="420" width="15" height="15" fill="#F99700"/>
<rect x="255" y="420" width="15" height="15" fill="#F99700"/>
<rect x="270" y="420" width="15" height="15" fill="#F99700"/>
<rect x="285" y="420" width="15" height="15" fill="#F99700"/>
<rect x="300" y="420" width="15" height="15" fill="#F99700"/>
<rect x="315" y="420" width="15" height="15" fill="#F99700"/>
<rect x="330" y="420" width="15" height="15" fill="#F99700"/>
<rect x="345" y="420" width="15" height="15" fill="#F99700"/>
<rect x="360" y="420" width="15" height="15" fill="#F99700"/>
<rect x="375" y="420" width="15" height="15" fill="#F99700"/>
<rect x="540" y="420" width="15" height="15" fill="#F99700"/>
<rect x="555" y="420" width="15" height="15" fill="#F99700"/>
<rect x="30" y="435" width="15" height="15" fill="#F99700"/>
<rect x="45" y="435" width="15" height="15" fill="#F99700"/>
<rect x="240" y="435" width="15" height="15" fill="#F99700"/>
<rect x="255" y="435" width="15" height="15" fill="#F99700"/>
<rect x="270" y="435" width="15" height="15" fill="#F99700"/>
<rect x="285" y="435" width="15" height="15" fill="#F99700"/>
<rect x="300" y="435" width="15" height="15" fill="#F99700"/>
<rect x="315" y="435" width="15" height="15" fill="#F99700"/>
<rect x="330" y="435" width="15" height="15" fill="#F99700"/>
<rect x="345" y="435" width="15" height="15" fill="#F99700"/>
<rect x="360" y="435" width="15" height="15" fill="#F99700"/>
<rect x="540" y="435" width="15" height="15" fill="#F99700"/>
<rect x="555" y="435" width="15" height="15" fill="#F99700"/>
<rect x="30" y="450" width="15" height="15" fill="#F99700"/>
<rect x="45" y="450" width="15" height="15" fill="#F99700"/>
<rect x="540" y="450" width="15" height="15" fill="#F99700"/>
<rect x="555" y="450" width="15" height="15" fill="#F99700"/>
<rect x="30" y="465" width="15" height="15" fill="#F99700"/>
<rect x="45" y="465" width="15" height="15" fill="#F99700"/>
<rect x="540" y="465" width="15" height="15" fill="#F99700"/>
<rect x="555" y="465" width="15" height="15" fill="#F99700"/>
<rect x="30" y="480" width="15" height="15" fill="#F99700"/>
<rect x="45" y="480" width="15" height="15" fill="#F99700"/>
<rect x="540" y="480" width="15" height="15" fill="#F99700"/>
<rect x="555" y="480" width="15" height="15" fill="#F99700"/>
<rect x="30" y="495" width="15" height="15" fill="#F99700"/>
<rect x="45" y="495" width="15" height="15" fill="#F99700"/>
<rect x="540" y="495" width="15" height="15" fill="#F99700"/>
<rect x="555" y="495" width="15" height="15" fill="#F99700"/>
<rect x="30" y="510" width="15" height="15" fill="#F99700"/>
<rect x="45" y="510" width="15" height="15" fill="#F99700"/>
<rect x="540" y="510" width="15" height="15" fill="#F99700"/>
<rect x="555" y="510" width="15" height="15" fill="#F99700"/>
<rect x="30" y="525" width="15" height="15" fill="#F99700"/>
<rect x="45" y="525" width="15" height="15" fill="#F99700"/>
<rect x="540" y="525" width="15" height="15" fill="#F99700"/>
<rect x="555" y="525" width="15" height="15" fill="#F99700"/>
<rect x="30" y="540" width="15" height="15" fill="#F99700"/>
<rect x="45" y="540" width="15" height="15" fill="#F99700"/>
<rect x="540" y="540" width="15" height="15" fill="#F99700"/>
<rect x="555" y="540" width="15" height="15" fill="#F99700"/>
<rect x="30" y="555" width="15" height="15" fill="#F99700"/>
<rect x="45" y="555" width="15" height="15" fill="#F99700"/>
<rect x="120" y="555" width="15" height="15" fill="#F99700"/>
<rect x="135" y="555" width="15" height="15" fill="#F99700"/>
<rect x="150" y="555" width="15" height="15" fill="#F99700"/>
<rect x="165" y="555" width="15" height="15" fill="#F99700"/>
<rect x="180" y="555" width="15" height="15" fill="#F99700"/>
<rect x="195" y="555" width="15" height="15" fill="#F99700"/>
<rect x="210" y="555" width="15" height="15" fill="#F99700"/>
<rect x="225" y="555" width="15" height="15" fill="#F99700"/>
<rect x="240" y="555" width="15" height="15" fill="#F99700"/>
<rect x="255" y="555" width="15" height="15" fill="#F99700"/>
<rect x="270" y="555" width="15" height="15" fill="#F99700"/>
<rect x="285" y="555" width="15" height="15" fill="#F99700"/>
<rect x="300" y="555" width="15" height="15" fill="#F99700"/>
<rect x="315" y="555" width="15" height="15" fill="#F99700"/>
<rect x="330" y="555" width="15" height="15" fill="#F99700"/>
<rect x="345" y="555" width="15" height="15" fill="#F99700"/>
<rect x="360" y="555" width="15" height="15" fill="#F99700"/>
<rect x="375" y="555" width="15" height="15" fill="#F99700"/>
<rect x="390" y="555" width="15" height="15" fill="#F99700"/>
<rect x="405" y="555" width="15" height="15" fill="#F99700"/>
<rect x="420" y="555" width="15" height="15" fill="#F99700"/>
<rect x="435" y="555" width="15" height="15" fill="#F99700"/>
<rect x="450" y="555" width="15" height="15" fill="#F99700"/>
<rect x="465" y="555" width="15" height="15" fill="#F99700"/>
<rect x="480" y="555" width="15" height="15" fill="#F99700"/>
<rect x="540" y="555" width="15" height="15" fill="#F99700"/>
<rect x="555" y="555" width="15" height="15" fill="#F99700"/>
<rect x="30" y="570" width="15" height="15" fill="#F99700"/>
<rect x="45" y="570" width="15" height="15" fill="#F99700"/>
<rect x="120" y="570" width="15" height="15" fill="#F99700"/>
<rect x="135" y="570" width="15" height="15" fill="#F99700"/>
<rect x="150" y="570" width="15" height="15" fill="#F99700"/>
<rect x="165" y="570" width="15" height="15" fill="#F99700"/>
<rect x="180" y="570" width="15" height="15" fill="#F99700"/>
<rect x="195" y="570" width="15" height="15" fill="#F99700"/>
<rect x="210" y="570" width="15" height="15" fill="#F99700"/>
<rect x="225" y="570" width="15" height="15" fill="#F99700"/>
<rect x="240" y="570" width="15" height="15" fill="#F99700"/>
<rect x="255" y="570" width="15" height="15" fill="#F99700"/>
<rect x="270" y="570" width="15" height="15" fill="#F99700"/>
<rect x="285" y="570" width="15" height="15" fill="#F99700"/>
<rect x="300" y="570" width="15" height="15" fill="#F99700"/>
<rect x="315" y="570" width="15" height="15" fill="#F99700"/>
<rect x="330" y="570" width="15" height="15" fill="#F99700"/>
<rect x="345" y="570" width="15" height="15" fill="#F99700"/>
<rect x="360" y="570" width="15" height="15" fill="#F99700"/>
<rect x="375" y="570" width="15" height="15" fill="#F99700"/>
<rect x="390" y="570" width="15" height="15" fill="#F99700"/>
<rect x="405" y="570" width="15" height="15" fill="#F99700"/>
<rect x="420" y="570" width="15" height="15" fill="#F99700"/>
<rect x="435" y="570" width="15" height="15" fill="#F99700"/>
<rect x="450" y="570" width="15" height="15" fill="#F99700"/>
<rect x="465" y="570" width="15" height="15" fill="#F99700"/>
<rect x="540" y="570" width="15" height="15" fill="#F99700"/>
<rect x="555" y="570" width="15" height="15" fill="#F99700"/>
<rect x="30" y="585" width="15" height="15" fill="#F99700"/>
<rect x="45" y="585" width="15" height="15" fill="#F99700"/>
<rect x="540" y="585" width="15" height="15" fill="#F99700"/>
<rect x="555" y="585" width="15" height="15" fill="#F99700"/>
<rect x="30" y="600" width="15" height="15" fill="#F99700"/>
<rect x="45" y="600" width="15" height="15" fill="#F99700"/>
<rect x="540" y="600" width="15" height="15" fill="#F99700"/>
<rect x="555" y="600" width="15" height="15" fill="#F99700"/>
<rect x="30" y="615" width="15" height="15" fill="#F99700"/>
<rect x="45" y="615" width="15" height="15" fill="#F99700"/>
<rect x="540" y="615" width="15" height="15" fill="#F99700"/>
<rect x="555" y="615" width="15" height="15" fill="#F99700"/>
<rect x="30" y="630" width="15" height="15" fill="#F99700"/>
<rect x="45" y="630" width="15" height="15" fill="#F99700"/>
<rect x="540" y="630" width="15" height="15" fill="#F99700"/>
<rect x="555" y="630" width="15" height="15" fill="#F99700"/>
<rect x="30" y="645" width="15" height="15" fill="#F99700"/>
<rect x="45" y="645" width="15" height="15" fill="#F99700"/>
<rect x="540" y="645" width="15" height="15" fill="#F99700"/>
<rect x="555" y="645" width="15" height="15" fill="#F99700"/>
<rect x="30" y="660" width="15" height="15" fill="#F99700"/>
<rect x="45" y="660" width="15" height="15" fill="#F99700"/>
<rect x="540" y="660" width="15" height="15" fill="#F99700"/>
<rect x="555" y="660" width="15" height="15" fill="#F99700"/>
<rect x="30" y="675" width="15" height="15" fill="#F99700"/>
<rect x="45" y="675" width="15" height="15" fill="#F99700"/>
<rect x="60" y="675" width="15" height="15" fill="#F99700"/>
<rect x="75" y="675" width="15" height="15" fill="#F99700"/>
<rect x="90" y="675" width="15" height="15" fill="#F99700"/>
<rect x="105" y="675" width="15" height="15" fill="#F99700"/>
<rect x="120" y="675" width="15" height="15" fill="#F99700"/>
<rect x="135" y="675" width="15" height="15" fill="#F99700"/>
<rect x="150" y="675" width="15" height="15" fill="#F99700"/>
<rect x="165" y="675" width="15" height="15" fill="#F99700"/>
<rect x="180" y="675" width="15" height="15" fill="#F99700"/>
<rect x="195" y="675" width="15" height="15" fill="#F99700"/>
<rect x="210" y="675" width="15" height="15" fill="#F99700"/>
<rect x="225" y="675" width="15" height="15" fill="#F99700"/>
<rect x="240" y="675" width="15" height="15" fill="#F99700"/>
<rect x="255" y="675" width="15" height="15" fill="#F99700"/>
<rect x="270" y="675" width="15" height="15" fill="#F99700"/>
<rect x="285" y="675" width="15" height="15" fill="#F99700"/>
<rect x="300" y="675" width="15" height="15" fill="#F99700"/>
<rect x="315" y="675" width="15" height="15" fill="#F99700"/>
<rect x="330" y="675" width="15" height="15" fill="#F99700"/>
<rect x="345" y="675" width="15" height="15" fill="#F99700"/>
<rect x="360" y="675" width="15" height="15" fill="#F99700"/>
<rect x="375" y="675" width="15" height="15" fill="#F99700"/>
<rect x="390" y="675" width="15" height="15" fill="#F99700"/>
<rect x="405" y="675" width="15" height="15" fill="#F99700"/>
<rect x="420" y="675" width="15" height="15" fill="#F99700"/>
<rect x="435" y="675" width="15" height="15" fill="#F99700"/>
<rect x="450" y="675" width="15" height="15" fill="#F99700"/>
<rect x="465" y="675" width="15" height="15" fill="#F99700"/>
<rect x="480" y="675" width="15" height="15" fill="#F99700"/>
<rect x="495" y="675" width="15" height="15" fill="#F99700"/>
<rect x="510" y="675" width="15" height="15" fill="#F99700"/>
<rect x="525" y="675" width="15" height="15" fill="#F99700"/>
<rect x="540" y="675" width="15" height="15" fill="#F99700"/>
<rect x="555" y="675" width="15" height="15" fill="#F99700"/>
<rect x="45" y="690" width="15" height="15" fill="#F99700"/>
<rect x="60" y="690" width="15" height="15" fill="#F99700"/>
<rect x="75" y="690" width="15" height="15" fill="#F99700"/>
<rect x="90" y="690" width="15" height="15" fill="#F99700"/>
<rect x="105" y="690" width="15" height="15" fill="#F99700"/>
<rect x="120" y="690" width="15" height="15" fill="#F99700"/>
<rect x="135" y="690" width="15" height="15" fill="#F99700"/>
<rect x="150" y="690" width="15" height="15" fill="#F99700"/>
<rect x="165" y="690" width="15" height="15" fill="#F99700"/>
<rect x="180" y="690" width="15" height="15" fill="#F99700"/>
<rect x="195" y="690" width="15" height="15" fill="#F99700"/>
<rect x="210" y="690" width="15" height="15" fill="#F99700"/>
<rect x="225" y="690" width="15" height="15" fill="#F99700"/>
<rect x="240" y="690" width="15" height="15" fill="#F99700"/>
<rect x="255" y="690" width="15" height="15" fill="#F99700"/>
<rect x="270" y="690" width="15" height="15" fill="#F99700"/>
<rect x="285" y="690" width="15" height="15" fill="#F99700"/>
<rect x="300" y="690" width="15" height="15" fill="#F99700"/>
<rect x="315" y="690" width="15" height="15" fill="#F99700"/>
<rect x="330" y="690" width="15" height="15" fill="#F99700"/>
<rect x="345" y="690" width="15" height="15" fill="#F99700"/>
<rect x="360" y="690" width="15" height="15" fill="#F99700"/>
<rect x="375" y="690" width="15" height="15" fill="#F99700"/>
<rect x="390" y="690" width="15" height="15" fill="#F99700"/>
<rect x="405" y="690" width="15" height="15" fill="#F99700"/>
<rect x="420" y="690" width="15" height="15" fill="#F99700"/>
<rect x="435" y="690" width="15" height="15" fill="#F99700"/>
<rect x="450" y="690" width="15" height="15" fill="#F99700"/>
<rect x="465" y="690" width="15" height="15" fill="#F99700"/>
<rect x="480" y="690" width="15" height="15" fill="#F99700"/>
<rect x="495" y="690" width="15" height="15" fill="#F99700"/>
<rect x="510" y="690" width="15" height="15" fill="#F99700"/>
<rect x="525" y="690" width="15" height="15" fill="#F99700"/>
<rect x="540" y="690" width="15" height="15" fill="#F99700"/>
</svg>