<svg width="581" height="583" viewBox="0 0 581 583" fill="none" xmlns="http://www.w3.org/2000/svg">
<path fill-rule="evenodd" clip-rule="evenodd" d="M103.796 38.6829C100.074 39.6569 91.7679 57.0849 88.1559 71.4999C87.0539 75.8999 85.6249 84.6229 84.9809 90.8839C82.4529 115.446 88.3759 149.39 99.6399 174.904C100.952 177.876 101.884 180.449 101.711 180.622C101.216 181.118 89.1789 166.714 81.6799 156.652C70.7879 142.037 59.8649 122.654 52.9199 105.616C44.8879 85.9159 33.5439 102.849 33.5689 134.5C33.5889 159.621 41.6699 185.108 56.8699 207.993C59.6079 212.114 61.6859 215.648 61.4879 215.845C61.2899 216.043 57.9379 213.458 54.0389 210.102C46.6369 203.732 44.0509 202.875 40.2509 205.537C33.7139 210.115 35.7159 230.294 44.6519 249.903C51.9749 265.972 70.6579 289.242 85.3199 300.553C89.1329 303.495 89.1369 303.505 87.5649 306.612C86.1859 309.34 86.1639 310.212 87.3879 313.683C95.4009 336.393 119.096 361.703 150.005 380.567C168.251 391.703 191.034 401.361 210 405.999C214.675 407.142 219.105 408.287 219.845 408.544C222.329 409.405 201.453 432.185 187.5 443.838C156.152 470.018 105.709 491.807 55.1679 500.999C43.1559 503.183 39.9999 504.821 39.9999 508.868C39.9999 515.559 45.8999 516.46 64.2569 512.572C96.3839 505.769 131.076 493.222 158.681 478.423C188.184 462.606 212.149 442.161 231.816 416.03L235.932 410.56L247.716 410.839C266.385 411.281 286.519 407.569 299.644 401.265C310.321 396.137 304.046 391.363 291.5 395.069C279.51 398.611 255.3 399.899 237.211 397.958C203.644 394.356 169.557 380.3 139.5 357.665C129.215 349.92 114.627 335.25 109.226 327.22C105.189 321.219 101.563 314 102.584 314C102.849 314 105.327 315.145 108.089 316.545C120.541 322.855 142.853 330.387 156.752 332.972C162.935 334.122 167.329 332.947 166.816 330.281C166.406 328.152 164.392 327.159 150 321.995C109.076 307.31 73.7039 278.276 58.0219 246.5C53.6439 237.629 48.3749 221.292 49.5219 220.145C49.7569 219.91 51.8729 221.287 54.2249 223.205C60.3319 228.188 95.9269 253.58 106 260.14C125.207 272.65 155.306 288.47 158.676 287.827C159.679 287.636 160.627 286.584 160.783 285.49C161.003 283.943 159.22 282.405 152.783 278.583C105.865 250.727 78.0689 223.215 59.6299 186.381C51.1779 169.496 47.1119 153.598 46.3619 134.5L45.8899 122.5L51.1949 132.559C65.3679 159.432 91.1209 189.695 124.117 218.251C140.333 232.284 159.576 246 163.048 246C167.178 246 165.599 242.907 157.351 234.836C147.208 224.913 132.344 206.66 125.233 195.396C113.178 176.302 105.199 155.352 100.326 130C97.7669 116.685 97.7939 87.9549 100.378 75.9999C101.389 71.3249 102.459 67.0969 102.757 66.6039C103.055 66.1109 104.765 71.0609 106.556 77.6039C122.724 136.65 159.548 193.589 219 251.472C237.339 269.328 249.105 279.184 276.403 299.561C295.974 314.169 334.562 337.866 355.248 347.98C371.027 355.694 376.69 357.283 378.903 354.617C381.482 351.509 379.401 348.317 372.242 344.399C368.534 342.369 364.225 339.94 362.667 339L359.834 337.292L369.667 334.194C394.328 326.423 412.254 323.942 429.901 325.856C449.95 328.031 460.513 333.191 479 349.841L484.5 354.795L480.5 355.5C471.061 357.164 466.494 358.673 466.195 360.227C465.786 362.352 466.836 362.61 485.5 364.969C494.3 366.081 503.075 367.368 505 367.828C508.336 368.626 508.195 368.7 502 369.403C488.166 370.973 477.637 373.194 467.819 376.611C446.035 384.193 432.183 393.341 408.98 415.468C392.688 431.004 388.992 434.286 382.008 439.422C356.994 457.812 324.044 469.156 284.211 473.091C276.324 473.87 264.324 474.096 250.711 473.722C212.482 472.673 206.993 474.736 171.644 503.441C160.828 512.224 151.972 518.494 143.209 523.573C138.851 526.098 138.064 529.375 141.052 532.555C143.763 535.442 147.707 535.719 152.3 533.347C158.932 529.922 170.74 521.546 180.742 513.17C197.349 499.264 202.978 495.213 211.927 490.726L220.354 486.5L254.927 486.436C290.617 486.37 293.448 486.136 316 481.388C334.291 477.538 357.934 469.124 370.427 462.019C388.443 451.774 398.518 443.951 420.164 423.403C442.622 402.083 455.513 393.759 477.261 386.537C491.721 381.734 500.606 380.139 517.105 379.383C534.186 378.6 537 377.626 537 372.497C537 368.409 535.568 367.286 525.596 363.556C509.142 357.401 497.886 350.052 478.598 332.87C468.378 323.765 459.31 318.977 445.5 315.394C437.046 313.2 433.258 312.791 421 312.746C401.302 312.674 385.782 315.611 360.217 324.247L347.933 328.396L341.558 325.253C325.11 317.142 293.628 296.335 269.5 277.628C237.709 252.98 214.27 230.238 187.949 198.5C148.838 151.342 123.598 101.698 114.016 53.0819C111.982 42.7609 110.655 38.9999 109.047 38.9999C108.561 38.9999 107.564 38.8279 106.832 38.6189C106.099 38.4089 104.733 38.4379 103.796 38.6829ZM493.693 77.7869C492.804 78.7689 491.356 81.3569 490.476 83.5369C485.377 96.1609 475.036 117.706 467.932 130.5C447.622 167.084 419.221 206.764 383.117 249C372.13 261.853 337.936 296.948 329.559 303.971L325.618 307.274L328.356 309.63C331.686 312.494 335.09 313.444 338.75 312.531C341.974 311.726 377.717 276.132 391.515 259.986C417.727 229.314 434.412 207.741 452.218 181.5C469.361 156.235 487.286 124.991 494.958 107L497.303 101.5L498.715 108C500.573 116.556 500.836 145.133 499.147 155C495.584 175.819 488.226 194.063 475.091 214.653C471.406 220.43 470.396 222.773 471.184 223.721C471.767 224.425 472.81 225 473.5 225C474.19 225 479.03 220.545 484.256 215.101C503.223 195.34 532.345 156.893 537.219 145.177C538.281 142.625 538.372 142.757 539.177 148C539.642 151.025 539.763 157.775 539.447 163C537.043 202.717 521.954 231.235 487.75 260.708C482.387 265.329 478 269.549 478 270.086C478 278.764 519.82 250.269 545.473 224.11C549.308 220.2 552.796 217 553.223 217C555.266 217 552.564 228.382 547.811 239.8C538.055 263.235 514.205 286.162 485.752 299.458C480.472 301.925 475.855 304.426 475.49 305.016C474.169 307.154 477.193 309.186 480.712 308.526C489.759 306.829 509.832 299.024 517.344 294.282C519.459 292.948 521.345 292.011 521.535 292.202C521.726 292.392 521.067 294.369 520.071 296.593C517.437 302.477 503.787 315.879 494.25 321.945C489.712 324.831 486 327.791 486 328.523C486 329.255 487.688 331.253 489.75 332.962C494.524 336.918 496.02 336.567 506.435 329.043C520.439 318.926 532.118 304.792 535.011 294.462C536.184 290.271 536.131 289.399 534.521 286.41L532.716 283.058L539.004 276.337C549.101 265.543 558.751 249.439 563.434 235.569C564.35 232.857 565.84 226.295 566.746 220.986C568.143 212.804 568.2 210.473 567.127 205.675C565.805 199.768 563.372 197 559.504 197C558.27 197 554.296 200.176 549.53 204.97C545.172 209.353 541.483 212.817 541.333 212.666C541.182 212.515 542.346 209.229 543.919 205.363C551.107 187.7 554.047 166.421 552.092 146.212C550.837 133.232 548.499 122.799 545.582 117.158C544.346 114.768 543.286 114.008 541.224 114.032C537.084 114.08 535.155 116.151 532.826 123.05C529.068 134.178 511.726 166.06 510.24 164.574C510.036 164.369 510.32 162.469 510.872 160.351C512.986 152.234 514.027 131.294 512.941 118.718C511.888 106.525 508.583 90.8679 505.554 83.7269C502.476 76.4689 497.253 73.8529 493.693 77.7869ZM433.923 343.923C427.517 350.329 432.344 361 441.647 361C445.111 361 451 355.05 451 351.55C451 348.133 448.513 343.345 446.055 342.03C442.245 339.991 437.044 340.802 433.923 343.923ZM175 478.348C173.075 479.041 165.328 483.288 157.784 487.785C134.493 501.668 117.403 509.678 94.5139 517.437C83.8809 521.042 82.4189 521.816 81.5529 524.303C79.3709 530.569 84.6189 533.113 94.6679 530.661C117.631 525.058 150.599 507.561 171.705 489.775C179.614 483.109 181.828 480.149 180.506 478.009C179.733 476.759 179.347 476.783 175 478.348Z" fill="#F99700" stroke="#F99700" stroke-width="7"/>
</svg>
