<svg width="545" height="560" viewBox="0 0 545 560" fill="none" xmlns="http://www.w3.org/2000/svg">
<rect x="15.127" y="272.349" width="15.1305" height="15.1305" fill="#F99700"/>
<rect x="22.7007" y="272.349" width="15.1305" height="15.1305" fill="#F99700"/>
<rect y="287.479" width="15.1305" height="15.1305" fill="#F99700"/>
<rect x="7.57373" y="287.479" width="15.1305" height="15.1305" fill="#F99700"/>
<rect x="75.6616" y="423.654" width="15.1305" height="15.1305" fill="#F99700"/>
<rect width="15.1305" height="15.1305" transform="matrix(-1 0 0 1 469.049 438.782)" fill="#F99700"/>
<rect width="15.1305" height="22.6957" transform="matrix(-1 0 0 1 453.916 446.349)" fill="#F99700"/>
<rect width="15.1305" height="15.1305" transform="matrix(-1 0 0 1 438.79 453.914)" fill="#F99700"/>
<rect width="45.3914" height="15.1305" transform="matrix(-1 0 0 1 416.082 484.175)" fill="#F99700"/>
<rect width="15.1305" height="15.1305" transform="matrix(-1 0 0 1 469.049 453.914)" fill="#F99700"/>
<rect width="15.1305" height="15.1305" transform="matrix(-1 0 0 1 453.916 469.043)" fill="#F99700"/>
<rect width="37.8261" height="15.1305" transform="matrix(-1 0 0 1 438.79 469.043)" fill="#F99700"/>
<rect width="45.3914" height="15.1305" transform="matrix(-1 0 0 1 393.402 499.305)" fill="#F99700"/>
<rect width="45.3914" height="15.1305" transform="matrix(-1 0 0 1 363.141 514.436)" fill="#F99700"/>
<rect width="37.8261" height="15.1305" transform="matrix(-1 0 0 1 325.313 529.566)" fill="#F99700"/>
<rect x="75.6616" y="431.217" width="15.1305" height="22.6957" fill="#F99700"/>
<rect x="90.7881" y="438.782" width="15.1305" height="15.1305" fill="#F99700"/>
<rect x="113.476" y="469.043" width="45.3914" height="15.1305" fill="#F99700"/>
<rect x="75.6616" y="453.914" width="15.1305" height="15.1305" fill="#F99700"/>
<rect x="90.7881" y="453.914" width="37.8261" height="15.1305" fill="#F99700"/>
<rect x="136.176" y="484.175" width="45.3914" height="15.1305" fill="#F99700"/>
<rect x="166.437" y="499.305" width="45.3914" height="15.1305" fill="#F99700"/>
<rect x="204.264" y="514.436" width="37.8261" height="15.1305" fill="#F99700"/>
<rect x="226.965" y="529.566" width="30.2609" height="15.1305" fill="#F99700"/>
<rect x="258.734" y="544.704" width="30.2609" height="15.1305" fill="#F99700"/>
<rect x="60.5342" y="287.479" width="15.1305" height="166.435" fill="#F99700"/>
<rect x="469.049" y="287.479" width="15.1305" height="181.566" fill="#F99700"/>
<rect x="30.2607" y="257.217" width="15.1305" height="15.1305" fill="#F99700"/>
<rect x="37.8276" y="257.217" width="15.1305" height="15.1305" fill="#F99700"/>
<rect x="30.2607" y="242.088" width="15.1305" height="15.1305" fill="#F99700"/>
<rect x="45.3877" y="242.088" width="15.1305" height="15.1305" fill="#F99700"/>
<rect x="45.3877" y="249.653" width="15.1305" height="15.1305" fill="#F99700"/>
<rect x="45.3877" y="226.956" width="15.1305" height="15.1305" fill="#F99700"/>
<rect x="45.3877" y="234.521" width="15.1305" height="15.1305" fill="#F99700"/>
<rect x="15.127" y="196.696" width="15.1305" height="15.1305" fill="#F99700"/>
<rect x="30.2607" y="196.696" width="15.1305" height="15.1305" fill="#F99700"/>
<rect x="30.2607" y="181.565" width="15.1305" height="15.1305" fill="#F99700"/>
<rect x="45.3877" y="181.565" width="15.1305" height="15.1305" fill="#F99700"/>
<rect x="45.3877" y="166.435" width="15.1305" height="15.1305" fill="#F99700"/>
<rect x="60.5342" y="166.435" width="15.1305" height="15.1305" fill="#F99700"/>
<rect x="75.6616" y="151.305" width="15.1305" height="15.1305" fill="#F99700"/>
<rect x="90.7881" y="143.74" width="15.1305" height="15.1305" fill="#F99700"/>
<rect x="105.916" y="143.74" width="15.1305" height="15.1305" fill="#F99700"/>
<rect x="90.7881" y="151.305" width="15.1305" height="15.1305" fill="#F99700"/>
<rect x="105.916" y="136.174" width="15.1305" height="15.1305" fill="#F99700"/>
<rect x="98.3486" y="128.609" width="15.1305" height="15.1305" fill="#F99700"/>
<rect x="105.916" y="121.044" width="15.1305" height="15.1305" fill="#F99700"/>
<rect x="98.3486" y="113.479" width="15.1305" height="15.1305" fill="#F99700"/>
<rect x="90.7881" y="121.044" width="15.1305" height="15.1305" fill="#F99700"/>
<rect x="83.2153" y="113.479" width="15.1305" height="15.1305" fill="#F99700"/>
<rect x="75.6616" y="121.044" width="15.1305" height="15.1305" fill="#F99700"/>
<rect x="68.0884" y="113.479" width="15.1305" height="15.1305" fill="#F99700"/>
<rect x="60.5342" y="121.044" width="15.1305" height="15.1305" fill="#F99700"/>
<rect x="52.9609" y="113.479" width="15.1305" height="15.1305" fill="#F99700"/>
<rect x="121.049" y="136.174" width="15.1305" height="15.1305" fill="#F99700"/>
<rect x="113.476" y="128.609" width="15.1305" height="15.1305" fill="#F99700"/>
<rect x="136.176" y="151.305" width="15.1305" height="15.1305" fill="#F99700"/>
<rect x="128.623" y="143.74" width="15.1305" height="15.1305" fill="#F99700"/>
<rect x="151.303" y="136.174" width="15.1305" height="15.1305" fill="#F99700"/>
<rect x="143.75" y="143.74" width="15.1305" height="15.1305" fill="#F99700"/>
<rect x="151.303" y="121.044" width="15.1305" height="15.1305" fill="#F99700"/>
<rect x="143.75" y="128.609" width="15.1305" height="15.1305" fill="#F99700"/>
<rect x="151.303" y="105.914" width="15.1305" height="15.1305" fill="#F99700"/>
<rect x="136.176" y="90.7819" width="15.1305" height="15.1305" fill="#F99700"/>
<rect x="121.049" y="75.6532" width="15.1305" height="15.1305" fill="#F99700"/>
<rect x="105.916" y="60.5212" width="15.1305" height="15.1305" fill="#F99700"/>
<rect x="121.049" y="60.5212" width="15.1305" height="15.1305" fill="#F99700"/>
<rect x="136.176" y="75.6532" width="15.1305" height="15.1305" fill="#F99700"/>
<rect x="151.303" y="75.6532" width="15.1305" height="15.1305" fill="#F99700"/>
<rect x="166.437" y="90.7819" width="15.1305" height="15.1305" fill="#F99700"/>
<rect x="181.563" y="105.914" width="15.1305" height="15.1305" fill="#F99700"/>
<rect x="196.711" y="105.914" width="15.1305" height="15.1305" fill="#F99700"/>
<rect x="211.838" y="90.7819" width="15.1305" height="15.1305" fill="#F99700"/>
<rect x="211.838" y="75.6532" width="15.1305" height="15.1305" fill="#F99700"/>
<rect x="211.838" y="75.6532" width="15.1305" height="15.1305" fill="#F99700"/>
<rect x="211.838" y="60.5212" width="15.1305" height="15.1305" fill="#F99700"/>
<rect x="211.838" y="60.5212" width="15.1305" height="15.1305" fill="#F99700"/>
<rect x="211.838" y="45.3909" width="15.1305" height="15.1305" fill="#F99700"/>
<rect x="211.838" y="45.3909" width="15.1305" height="15.1305" fill="#F99700"/>
<rect x="211.838" y="30.2605" width="15.1305" height="15.1305" fill="#F99700"/>
<rect x="196.711" y="30.2605" width="15.1305" height="15.1305" fill="#F99700"/>
<rect x="196.711" y="15.1304" width="15.1305" height="15.1305" fill="#F99700"/>
<rect x="196.711" y="15.1304" width="15.1305" height="15.1305" fill="#F99700"/>
<rect x="196.711" width="15.1305" height="15.1305" fill="#F99700"/>
<rect x="211.838" y="30.2605" width="15.1305" height="15.1305" fill="#F99700"/>
<rect x="211.838" y="15.1304" width="15.1305" height="15.1305" fill="#F99700"/>
<rect x="226.965" y="45.3909" width="15.1305" height="15.1305" fill="#F99700"/>
<rect x="226.965" y="30.2605" width="15.1305" height="15.1305" fill="#F99700"/>
<rect x="242.098" y="60.5212" width="15.1305" height="15.1305" fill="#F99700"/>
<rect x="242.098" y="45.3909" width="15.1305" height="15.1305" fill="#F99700"/>
<rect x="257.225" y="75.6532" width="15.1305" height="15.1305" fill="#F99700"/>
<rect x="257.225" y="60.5212" width="15.1305" height="15.1305" fill="#F99700"/>
<rect x="272.353" y="90.7819" width="15.1305" height="15.1305" fill="#F99700"/>
<rect x="272.353" y="75.6532" width="15.1305" height="15.1305" fill="#F99700"/>
<rect x="287.479" y="105.914" width="15.1305" height="15.1305" fill="#F99700"/>
<rect x="287.479" y="90.7819" width="15.1305" height="15.1305" fill="#F99700"/>
<rect x="302.613" y="75.6532" width="15.1305" height="15.1305" fill="#F99700"/>
<rect x="302.613" y="60.5212" width="15.1305" height="15.1305" fill="#F99700"/>
<rect x="317.74" y="45.3909" width="15.1305" height="15.1305" fill="#F99700"/>
<rect x="317.74" y="105.914" width="15.1305" height="15.1305" fill="#F99700"/>
<rect x="332.887" y="90.7819" width="15.1305" height="15.1305" fill="#F99700"/>
<rect x="363.141" y="121.044" width="15.1305" height="15.1305" fill="#F99700"/>
<rect x="378.274" y="121.044" width="15.1305" height="15.1305" fill="#F99700"/>
<rect x="378.274" y="105.914" width="15.1305" height="15.1305" fill="#F99700"/>
<rect x="393.402" y="105.914" width="15.1305" height="15.1305" fill="#F99700"/>
<rect x="423.656" y="136.174" width="15.1305" height="15.1305" fill="#F99700"/>
<rect x="438.79" y="121.044" width="15.1305" height="15.1305" fill="#F99700"/>
<rect x="453.916" y="166.435" width="15.1305" height="15.1305" fill="#F99700"/>
<rect x="469.049" y="166.435" width="15.1305" height="15.1305" fill="#F99700"/>
<rect x="446.362" y="158.87" width="37.8261" height="15.1305" fill="#F99700"/>
<rect x="484.17" y="181.565" width="15.1305" height="15.1305" fill="#F99700"/>
<rect x="484.17" y="174" width="15.1305" height="15.1305" fill="#F99700"/>
<rect x="499.304" y="196.696" width="15.1305" height="15.1305" fill="#F99700"/>
<rect x="499.304" y="189.131" width="15.1305" height="15.1305" fill="#F99700"/>
<rect x="514.45" y="211.826" width="15.1305" height="15.1305" fill="#F99700"/>
<rect x="514.45" y="204.261" width="15.1305" height="15.1305" fill="#F99700"/>
<rect x="529.578" y="226.956" width="15.1305" height="15.1305" fill="#F99700"/>
<rect x="453.916" y="121.044" width="15.1305" height="15.1305" fill="#F99700"/>
<rect x="469.049" y="121.044" width="15.1305" height="15.1305" fill="#F99700"/>
<rect x="469.049" y="136.174" width="15.1305" height="15.1305" fill="#F99700"/>
<rect x="469.049" y="211.826" width="15.1305" height="22.6957" fill="#F99700"/>
<rect x="453.916" y="196.696" width="15.1305" height="22.6957" fill="#F99700"/>
<rect x="484.17" y="226.956" width="15.1305" height="22.6957" fill="#F99700"/>
<rect x="499.304" y="242.088" width="15.1305" height="15.1305" fill="#F99700"/>
<rect x="514.45" y="272.349" width="15.1305" height="15.1305" fill="#F99700"/>
<rect x="514.45" y="302.61" width="15.1305" height="15.1305" fill="#F99700"/>
<rect x="499.304" y="257.217" width="15.1305" height="15.1305" fill="#F99700"/>
<rect x="514.45" y="287.479" width="15.1305" height="15.1305" fill="#F99700"/>
<rect x="514.45" y="317.74" width="15.1305" height="15.1305" fill="#F99700"/>
<rect x="484.17" y="136.174" width="15.1305" height="15.1305" fill="#F99700"/>
<rect x="499.304" y="136.174" width="15.1305" height="15.1305" fill="#F99700"/>
<rect x="408.528" y="105.914" width="15.1305" height="15.1305" fill="#F99700"/>
<rect x="408.528" y="90.7819" width="15.1305" height="15.1305" fill="#F99700"/>
<rect x="423.656" y="90.7819" width="15.1305" height="15.1305" fill="#F99700"/>
<rect x="453.916" y="90.7819" width="15.1305" height="15.1305" fill="#F99700"/>
<rect x="438.79" y="90.7819" width="15.1305" height="15.1305" fill="#F99700"/>
<rect x="469.049" y="90.7819" width="15.1305" height="15.1305" fill="#F99700"/>
<rect x="484.17" y="90.7819" width="15.1305" height="15.1305" fill="#F99700"/>
<rect x="332.887" y="75.6532" width="15.1305" height="15.1305" fill="#F99700"/>
<rect x="347.994" y="75.6532" width="15.1305" height="15.1305" fill="#F99700"/>
<rect x="363.141" y="75.6532" width="15.1305" height="15.1305" fill="#F99700"/>
<rect x="363.141" y="60.5212" width="15.1305" height="15.1305" fill="#F99700"/>
<rect x="378.274" y="60.5212" width="15.1305" height="15.1305" fill="#F99700"/>
<rect x="393.402" y="60.5212" width="15.1305" height="15.1305" fill="#F99700"/>
<rect x="60.5342" y="226.956" width="15.1305" height="15.1305" fill="#F99700"/>
<rect x="60.5342" y="234.521" width="15.1305" height="15.1305" fill="#F99700"/>
<rect x="60.5342" y="211.826" width="15.1305" height="15.1305" fill="#F99700"/>
<rect x="60.5342" y="219.391" width="15.1305" height="15.1305" fill="#F99700"/>
<rect x="75.6616" y="211.826" width="15.1305" height="15.1305" fill="#F99700"/>
<rect x="75.6616" y="219.391" width="15.1305" height="15.1305" fill="#F99700"/>
<rect x="75.6616" y="196.696" width="15.1305" height="15.1305" fill="#F99700"/>
<rect x="75.6616" y="204.261" width="15.1305" height="15.1305" fill="#F99700"/>
<rect x="90.7881" y="196.696" width="15.1305" height="15.1305" fill="#F99700"/>
<rect x="90.7881" y="204.261" width="15.1305" height="15.1305" fill="#F99700"/>
<rect x="181.563" y="226.956" width="15.1305" height="15.1305" fill="#F99700"/>
<rect x="332.887" y="211.826" width="15.1305" height="15.1305" fill="#F99700"/>
<rect x="181.563" y="242.088" width="15.1305" height="15.1305" fill="#F99700"/>
<rect x="332.887" y="226.956" width="15.1305" height="15.1305" fill="#F99700"/>
<rect x="317.74" y="226.956" width="15.1305" height="15.1305" fill="#F99700"/>
<rect x="151.303" y="257.217" width="15.1305" height="15.1305" fill="#F99700"/>
<rect x="302.613" y="242.088" width="15.1305" height="15.1305" fill="#F99700"/>
<rect x="151.303" y="272.349" width="45.3914" height="15.1305" fill="#F99700"/>
<rect x="302.613" y="257.217" width="30.2609" height="15.1305" fill="#F99700"/>
<rect x="242.098" y="257.217" width="15.1305" height="45.3914" fill="#F99700"/>
<rect x="378.274" y="242.088" width="30.2609" height="45.3914" fill="#F99700"/>
<rect x="151.303" y="287.479" width="45.3914" height="15.1305" fill="#F99700"/>
<rect x="302.613" y="272.349" width="30.2609" height="15.1305" fill="#F99700"/>
<rect x="166.437" y="302.61" width="60.5218" height="15.1305" fill="#F99700"/>
<rect x="317.74" y="287.479" width="60.5218" height="15.1305" fill="#F99700"/>
<rect x="226.965" y="302.61" width="22.6957" height="22.6957" fill="#F99700"/>
<rect x="378.274" y="287.479" width="15.1305" height="15.1305" fill="#F99700"/>
<rect x="181.563" y="317.74" width="45.3914" height="15.1305" fill="#F99700"/>
<rect x="332.887" y="302.61" width="45.3914" height="15.1305" fill="#F99700"/>
<rect x="196.711" y="226.956" width="15.1305" height="15.1305" fill="#F99700"/>
<rect x="347.994" y="211.826" width="15.1305" height="15.1305" fill="#F99700"/>
<rect x="196.711" y="242.088" width="15.1305" height="15.1305" fill="#F99700"/>
<rect x="347.994" y="226.956" width="15.1305" height="15.1305" fill="#F99700"/>
<rect x="166.437" y="257.217" width="45.3914" height="15.1305" fill="#F99700"/>
<rect x="317.74" y="242.088" width="30.2609" height="15.1305" fill="#F99700"/>
<rect x="211.838" y="226.956" width="15.1305" height="15.1305" fill="#F99700"/>
<rect x="363.141" y="211.826" width="15.1305" height="15.1305" fill="#F99700"/>
<rect x="211.838" y="242.088" width="15.1305" height="15.1305" fill="#F99700"/>
<rect x="363.141" y="226.956" width="15.1305" height="15.1305" fill="#F99700"/>
<rect x="226.965" y="242.088" width="15.1305" height="15.1305" fill="#F99700"/>
<rect x="226.965" y="234.521" width="22.6957" height="22.6957" fill="#F99700"/>
<rect x="158.876" y="302.61" width="22.6957" height="22.6957" fill="#F99700"/>
<rect x="158.876" y="249.653" width="15.1305" height="15.1305" fill="#F99700"/>
<rect x="174.003" y="234.521" width="15.1305" height="15.1305" fill="#F99700"/>
<rect x="166.437" y="242.088" width="15.1305" height="15.1305" fill="#F99700"/>
<rect x="378.274" y="226.956" width="15.1305" height="15.1305" fill="#F99700"/>
<rect x="226.965" y="257.217" width="15.1305" height="15.1305" fill="#F99700"/>
<rect x="363.141" y="242.088" width="30.2609" height="15.1305" fill="#F99700"/>
<rect x="128.623" y="355.566" width="15.1305" height="15.1305" fill="#F99700"/>
<rect x="196.711" y="385.826" width="30.2609" height="37.8261" fill="#F99700"/>
<rect x="249.652" y="393.391" width="30.2609" height="45.3914" fill="#F99700"/>
<rect x="302.613" y="393.391" width="30.2609" height="45.3914" fill="#F99700"/>
<rect opacity="0.2" x="302.613" y="408.522" width="30.2609" height="30.2609" fill="#F99700"/>
<rect x="355.567" y="385.826" width="30.2609" height="30.2609" fill="#F99700"/>
<rect x="385.828" y="370.696" width="22.6957" height="30.2609" fill="#F99700"/>
<rect x="408.528" y="355.566" width="15.1305" height="15.1305" fill="#F99700"/>
<rect x="423.656" y="340.435" width="15.1305" height="15.1305" fill="#F99700"/>
<rect x="158.876" y="385.826" width="22.6957" height="15.1305" fill="#F99700"/>
<rect x="143.75" y="370.696" width="30.2609" height="15.1305" fill="#F99700"/>
<rect x="113.476" y="340.435" width="15.1305" height="15.1305" fill="#F99700"/>
</svg>
