<svg width="660" height="690" viewBox="0 0 660 690" fill="none" xmlns="http://www.w3.org/2000/svg">
<rect x="30" y="30" width="15" height="15" fill="#F99700"/>
<rect x="45" y="30" width="15" height="15" fill="#F99700"/>
<rect x="60" y="30" width="15" height="15" fill="#F99700"/>
<rect x="75" y="30" width="15" height="15" fill="#F99700"/>
<rect x="90" y="30" width="15" height="15" fill="#F99700"/>
<rect x="105" y="30" width="15" height="15" fill="#F99700"/>
<rect x="120" y="30" width="15" height="15" fill="#F99700"/>
<rect x="135" y="30" width="15" height="15" fill="#F99700"/>
<rect x="150" y="30" width="15" height="15" fill="#F99700"/>
<rect x="165" y="30" width="15" height="15" fill="#F99700"/>
<rect x="180" y="30" width="15" height="15" fill="#F99700"/>
<rect x="195" y="30" width="15" height="15" fill="#F99700"/>
<rect x="210" y="30" width="15" height="15" fill="#F99700"/>
<rect x="225" y="30" width="15" height="15" fill="#F99700"/>
<rect x="240" y="30" width="15" height="15" fill="#F99700"/>
<rect x="255" y="30" width="15" height="15" fill="#F99700"/>
<rect x="270" y="30" width="15" height="15" fill="#F99700"/>
<rect x="285" y="30" width="15" height="15" fill="#F99700"/>
<rect x="300" y="30" width="15" height="15" fill="#F99700"/>
<rect x="315" y="30" width="15" height="15" fill="#F99700"/>
<rect x="330" y="30" width="15" height="15" fill="#F99700"/>
<rect x="345" y="30" width="15" height="15" fill="#F99700"/>
<rect x="360" y="30" width="15" height="15" fill="#F99700"/>
<rect x="375" y="30" width="15" height="15" fill="#F99700"/>
<rect x="390" y="30" width="15" height="15" fill="#F99700"/>
<rect x="405" y="30" width="15" height="15" fill="#F99700"/>
<rect x="420" y="30" width="15" height="15" fill="#F99700"/>
<rect x="435" y="30" width="15" height="15" fill="#F99700"/>
<rect x="450" y="30" width="15" height="15" fill="#F99700"/>
<rect x="465" y="30" width="15" height="15" fill="#F99700"/>
<rect x="480" y="30" width="15" height="15" fill="#F99700"/>
<rect x="495" y="30" width="15" height="15" fill="#F99700"/>
<rect x="510" y="30" width="15" height="15" fill="#F99700"/>
<rect x="525" y="30" width="15" height="15" fill="#F99700"/>
<rect x="540" y="30" width="15" height="15" fill="#F99700"/>
<rect x="555" y="30" width="15" height="15" fill="#F99700"/>
<rect x="570" y="30" width="15" height="15" fill="#F99700"/>
<rect x="585" y="30" width="15" height="15" fill="#F99700"/>
<rect x="600" y="30" width="15" height="15" fill="#F99700"/>
<rect x="30" y="45" width="15" height="15" fill="#F99700"/>
<rect x="45" y="45" width="15" height="15" fill="#F99700"/>
<rect x="60" y="45" width="15" height="15" fill="#F99700"/>
<rect x="75" y="45" width="15" height="15" fill="#F99700"/>
<rect x="90" y="45" width="15" height="15" fill="#F99700"/>
<rect x="105" y="45" width="15" height="15" fill="#F99700"/>
<rect x="120" y="45" width="15" height="15" fill="#F99700"/>
<rect x="135" y="45" width="15" height="15" fill="#F99700"/>
<rect x="150" y="45" width="15" height="15" fill="#F99700"/>
<rect x="165" y="45" width="15" height="15" fill="#F99700"/>
<rect x="180" y="45" width="15" height="15" fill="#F99700"/>
<rect x="195" y="45" width="15" height="15" fill="#F99700"/>
<rect x="210" y="45" width="15" height="15" fill="#F99700"/>
<rect x="225" y="45" width="15" height="15" fill="#F99700"/>
<rect x="240" y="45" width="15" height="15" fill="#F99700"/>
<rect x="255" y="45" width="15" height="15" fill="#F99700"/>
<rect x="270" y="45" width="15" height="15" fill="#F99700"/>
<rect x="285" y="45" width="15" height="15" fill="#F99700"/>
<rect x="300" y="45" width="15" height="15" fill="#F99700"/>
<rect x="315" y="45" width="15" height="15" fill="#F99700"/>
<rect x="330" y="45" width="15" height="15" fill="#F99700"/>
<rect x="345" y="45" width="15" height="15" fill="#F99700"/>
<rect x="360" y="45" width="15" height="15" fill="#F99700"/>
<rect x="375" y="45" width="15" height="15" fill="#F99700"/>
<rect x="390" y="45" width="15" height="15" fill="#F99700"/>
<rect x="405" y="45" width="15" height="15" fill="#F99700"/>
<rect x="420" y="45" width="15" height="15" fill="#F99700"/>
<rect x="435" y="45" width="15" height="15" fill="#F99700"/>
<rect x="450" y="45" width="15" height="15" fill="#F99700"/>
<rect x="465" y="45" width="15" height="15" fill="#F99700"/>
<rect x="480" y="45" width="15" height="15" fill="#F99700"/>
<rect x="495" y="45" width="15" height="15" fill="#F99700"/>
<rect x="510" y="45" width="15" height="15" fill="#F99700"/>
<rect x="525" y="45" width="15" height="15" fill="#F99700"/>
<rect x="540" y="45" width="15" height="15" fill="#F99700"/>
<rect x="555" y="45" width="15" height="15" fill="#F99700"/>
<rect x="570" y="45" width="15" height="15" fill="#F99700"/>
<rect x="585" y="45" width="15" height="15" fill="#F99700"/>
<rect x="600" y="45" width="15" height="15" fill="#F99700"/>
<rect x="615" y="45" width="15" height="15" fill="#F99700"/>
<rect x="30" y="60" width="15" height="15" fill="#F99700"/>
<rect x="45" y="60" width="15" height="15" fill="#F99700"/>
<rect x="75" y="60" width="15" height="15" fill="#F99700"/>
<rect x="90" y="60" width="15" height="15" fill="#F99700"/>
<rect x="105" y="60" width="15" height="15" fill="#F99700"/>
<rect x="120" y="60" width="15" height="15" fill="#F99700"/>
<rect x="135" y="60" width="15" height="15" fill="#F99700"/>
<rect x="150" y="60" width="15" height="15" fill="#F99700"/>
<rect x="165" y="60" width="15" height="15" fill="#F99700"/>
<rect x="585" y="60" width="15" height="15" fill="#F99700"/>
<rect x="600" y="60" width="15" height="15" fill="#F99700"/>
<rect x="615" y="60" width="15" height="15" fill="#F99700"/>
<rect x="30" y="75" width="15" height="15" fill="#F99700"/>
<rect x="45" y="75" width="15" height="15" fill="#F99700"/>
<rect x="120" y="75" width="15" height="15" fill="#F99700"/>
<rect x="135" y="75" width="15" height="15" fill="#F99700"/>
<rect x="150" y="75" width="15" height="15" fill="#F99700"/>
<rect x="165" y="75" width="15" height="15" fill="#F99700"/>
<rect x="180" y="75" width="15" height="15" fill="#F99700"/>
<rect x="195" y="75" width="15" height="15" fill="#F99700"/>
<rect x="210" y="75" width="15" height="15" fill="#F99700"/>
<rect x="600" y="75" width="15" height="15" fill="#F99700"/>
<rect x="615" y="75" width="15" height="15" fill="#F99700"/>
<rect x="30" y="90" width="15" height="15" fill="#F99700"/>
<rect x="45" y="90" width="15" height="15" fill="#F99700"/>
<rect x="165" y="90" width="15" height="15" fill="#F99700"/>
<rect x="180" y="90" width="15" height="15" fill="#F99700"/>
<rect x="195" y="90" width="15" height="15" fill="#F99700"/>
<rect x="210" y="90" width="15" height="15" fill="#F99700"/>
<rect x="225" y="90" width="15" height="15" fill="#F99700"/>
<rect x="240" y="90" width="15" height="15" fill="#F99700"/>
<rect x="255" y="90" width="15" height="15" fill="#F99700"/>
<rect x="600" y="90" width="15" height="15" fill="#F99700"/>
<rect x="615" y="90" width="15" height="15" fill="#F99700"/>
<rect x="30" y="105" width="15" height="15" fill="#F99700"/>
<rect x="45" y="105" width="15" height="15" fill="#F99700"/>
<rect x="210" y="105" width="15" height="15" fill="#F99700"/>
<rect x="225" y="105" width="15" height="15" fill="#F99700"/>
<rect x="240" y="105" width="15" height="15" fill="#F99700"/>
<rect x="255" y="105" width="15" height="15" fill="#F99700"/>
<rect x="270" y="105" width="15" height="15" fill="#F99700"/>
<rect x="285" y="105" width="15" height="15" fill="#F99700"/>
<rect x="300" y="105" width="15" height="15" fill="#F99700"/>
<rect x="600" y="105" width="15" height="15" fill="#F99700"/>
<rect x="615" y="105" width="15" height="15" fill="#F99700"/>
<rect x="30" y="120" width="15" height="15" fill="#F99700"/>
<rect x="45" y="120" width="15" height="15" fill="#F99700"/>
<rect x="240" y="120" width="15" height="15" fill="#F99700"/>
<rect x="255" y="120" width="15" height="15" fill="#F99700"/>
<rect x="270" y="120" width="15" height="15" fill="#F99700"/>
<rect x="285" y="120" width="15" height="15" fill="#F99700"/>
<rect x="300" y="120" width="15" height="15" fill="#F99700"/>
<rect x="315" y="120" width="15" height="15" fill="#F99700"/>
<rect x="330" y="120" width="15" height="15" fill="#F99700"/>
<rect x="345" y="120" width="15" height="15" fill="#F99700"/>
<rect x="600" y="120" width="15" height="15" fill="#F99700"/>
<rect x="615" y="120" width="15" height="15" fill="#F99700"/>
<rect x="30" y="135" width="15" height="15" fill="#F99700"/>
<rect x="45" y="135" width="15" height="15" fill="#F99700"/>
<rect x="285" y="135" width="15" height="15" fill="#F99700"/>
<rect x="300" y="135" width="15" height="15" fill="#F99700"/>
<rect x="315" y="135" width="15" height="15" fill="#F99700"/>
<rect x="330" y="135" width="15" height="15" fill="#F99700"/>
<rect x="345" y="135" width="15" height="15" fill="#F99700"/>
<rect x="360" y="135" width="15" height="15" fill="#F99700"/>
<rect x="375" y="135" width="15" height="15" fill="#F99700"/>
<rect x="390" y="135" width="15" height="15" fill="#F99700"/>
<rect x="600" y="135" width="15" height="15" fill="#F99700"/>
<rect x="615" y="135" width="15" height="15" fill="#F99700"/>
<rect x="30" y="150" width="15" height="15" fill="#F99700"/>
<rect x="45" y="150" width="15" height="15" fill="#F99700"/>
<rect x="330" y="150" width="15" height="15" fill="#F99700"/>
<rect x="345" y="150" width="15" height="15" fill="#F99700"/>
<rect x="360" y="150" width="15" height="15" fill="#F99700"/>
<rect x="375" y="150" width="15" height="15" fill="#F99700"/>
<rect x="390" y="150" width="15" height="15" fill="#F99700"/>
<rect x="405" y="150" width="15" height="15" fill="#F99700"/>
<rect x="420" y="150" width="15" height="15" fill="#F99700"/>
<rect x="435" y="150" width="15" height="15" fill="#F99700"/>
<rect x="600" y="150" width="15" height="15" fill="#F99700"/>
<rect x="615" y="150" width="15" height="15" fill="#F99700"/>
<rect x="30" y="165" width="15" height="15" fill="#F99700"/>
<rect x="45" y="165" width="15" height="15" fill="#F99700"/>
<rect x="375" y="165" width="15" height="15" fill="#F99700"/>
<rect x="390" y="165" width="15" height="15" fill="#F99700"/>
<rect x="405" y="165" width="15" height="15" fill="#F99700"/>
<rect x="420" y="165" width="15" height="15" fill="#F99700"/>
<rect x="435" y="165" width="15" height="15" fill="#F99700"/>
<rect x="450" y="165" width="15" height="15" fill="#F99700"/>
<rect x="465" y="165" width="15" height="15" fill="#F99700"/>
<rect x="480" y="165" width="15" height="15" fill="#F99700"/>
<rect x="600" y="165" width="15" height="15" fill="#F99700"/>
<rect x="615" y="165" width="15" height="15" fill="#F99700"/>
<rect x="30" y="180" width="15" height="15" fill="#F99700"/>
<rect x="45" y="180" width="15" height="15" fill="#F99700"/>
<rect x="420" y="180" width="15" height="15" fill="#F99700"/>
<rect x="435" y="180" width="15" height="15" fill="#F99700"/>
<rect x="450" y="180" width="15" height="15" fill="#F99700"/>
<rect x="465" y="180" width="15" height="15" fill="#F99700"/>
<rect x="480" y="180" width="15" height="15" fill="#F99700"/>
<rect x="495" y="180" width="15" height="15" fill="#F99700"/>
<rect x="510" y="180" width="15" height="15" fill="#F99700"/>
<rect x="600" y="180" width="15" height="15" fill="#F99700"/>
<rect x="615" y="180" width="15" height="15" fill="#F99700"/>
<rect x="30" y="195" width="15" height="15" fill="#F99700"/>
<rect x="45" y="195" width="15" height="15" fill="#F99700"/>
<rect x="465" y="195" width="15" height="15" fill="#F99700"/>
<rect x="480" y="195" width="15" height="15" fill="#F99700"/>
<rect x="495" y="195" width="15" height="15" fill="#F99700"/>
<rect x="510" y="195" width="15" height="15" fill="#F99700"/>
<rect x="525" y="195" width="15" height="15" fill="#F99700"/>
<rect x="600" y="195" width="15" height="15" fill="#F99700"/>
<rect x="615" y="195" width="15" height="15" fill="#F99700"/>
<rect x="30" y="210" width="15" height="15" fill="#F99700"/>
<rect x="45" y="210" width="15" height="15" fill="#F99700"/>
<rect x="510" y="210" width="15" height="15" fill="#F99700"/>
<rect x="525" y="210" width="15" height="15" fill="#F99700"/>
<rect x="540" y="210" width="15" height="15" fill="#F99700"/>
<rect x="600" y="210" width="15" height="15" fill="#F99700"/>
<rect x="615" y="210" width="15" height="15" fill="#F99700"/>
<rect x="30" y="225" width="15" height="15" fill="#F99700"/>
<rect x="45" y="225" width="15" height="15" fill="#F99700"/>
<rect x="510" y="225" width="15" height="15" fill="#F99700"/>
<rect x="525" y="225" width="15" height="15" fill="#F99700"/>
<rect x="540" y="225" width="15" height="15" fill="#F99700"/>
<rect x="600" y="225" width="15" height="15" fill="#F99700"/>
<rect x="615" y="225" width="15" height="15" fill="#F99700"/>
<rect x="30" y="240" width="15" height="15" fill="#F99700"/>
<rect x="45" y="240" width="15" height="15" fill="#F99700"/>
<rect x="510" y="240" width="15" height="15" fill="#F99700"/>
<rect x="525" y="240" width="15" height="15" fill="#F99700"/>
<rect x="540" y="240" width="15" height="15" fill="#F99700"/>
<rect x="600" y="240" width="15" height="15" fill="#F99700"/>
<rect x="615" y="240" width="15" height="15" fill="#F99700"/>
<rect x="30" y="255" width="15" height="15" fill="#F99700"/>
<rect x="45" y="255" width="15" height="15" fill="#F99700"/>
<rect x="510" y="255" width="15" height="15" fill="#F99700"/>
<rect x="525" y="255" width="15" height="15" fill="#F99700"/>
<rect x="540" y="255" width="15" height="15" fill="#F99700"/>
<rect x="600" y="255" width="15" height="15" fill="#F99700"/>
<rect x="615" y="255" width="15" height="15" fill="#F99700"/>
<rect x="30" y="270" width="15" height="15" fill="#F99700"/>
<rect x="45" y="270" width="15" height="15" fill="#F99700"/>
<rect x="510" y="270" width="15" height="15" fill="#F99700"/>
<rect x="525" y="270" width="15" height="15" fill="#F99700"/>
<rect x="540" y="270" width="15" height="15" fill="#F99700"/>
<rect x="600" y="270" width="15" height="15" fill="#F99700"/>
<rect x="615" y="270" width="15" height="15" fill="#F99700"/>
<rect x="30" y="285" width="15" height="15" fill="#F99700"/>
<rect x="45" y="285" width="15" height="15" fill="#F99700"/>
<rect x="510" y="285" width="15" height="15" fill="#F99700"/>
<rect x="525" y="285" width="15" height="15" fill="#F99700"/>
<rect x="540" y="285" width="15" height="15" fill="#F99700"/>
<rect x="600" y="285" width="15" height="15" fill="#F99700"/>
<rect x="615" y="285" width="15" height="15" fill="#F99700"/>
<rect x="30" y="300" width="15" height="15" fill="#F99700"/>
<rect x="45" y="300" width="15" height="15" fill="#F99700"/>
<rect x="510" y="300" width="15" height="15" fill="#F99700"/>
<rect x="525" y="300" width="15" height="15" fill="#F99700"/>
<rect x="540" y="300" width="15" height="15" fill="#F99700"/>
<rect x="600" y="300" width="15" height="15" fill="#F99700"/>
<rect x="615" y="300" width="15" height="15" fill="#F99700"/>
<rect x="30" y="315" width="15" height="15" fill="#F99700"/>
<rect x="45" y="315" width="15" height="15" fill="#F99700"/>
<rect x="510" y="315" width="15" height="15" fill="#F99700"/>
<rect x="525" y="315" width="15" height="15" fill="#F99700"/>
<rect x="540" y="315" width="15" height="15" fill="#F99700"/>
<rect x="600" y="315" width="15" height="15" fill="#F99700"/>
<rect x="615" y="315" width="15" height="15" fill="#F99700"/>
<rect x="30" y="330" width="15" height="15" fill="#F99700"/>
<rect x="45" y="330" width="15" height="15" fill="#F99700"/>
<rect x="510" y="330" width="15" height="15" fill="#F99700"/>
<rect x="525" y="330" width="15" height="15" fill="#F99700"/>
<rect x="540" y="330" width="15" height="15" fill="#F99700"/>
<rect x="600" y="330" width="15" height="15" fill="#F99700"/>
<rect x="615" y="330" width="15" height="15" fill="#F99700"/>
<rect x="30" y="345" width="15" height="15" fill="#F99700"/>
<rect x="45" y="345" width="15" height="15" fill="#F99700"/>
<rect x="510" y="345" width="15" height="15" fill="#F99700"/>
<rect x="525" y="345" width="15" height="15" fill="#F99700"/>
<rect x="540" y="345" width="15" height="15" fill="#F99700"/>
<rect x="600" y="345" width="15" height="15" fill="#F99700"/>
<rect x="615" y="345" width="15" height="15" fill="#F99700"/>
<rect x="30" y="360" width="15" height="15" fill="#F99700"/>
<rect x="45" y="360" width="15" height="15" fill="#F99700"/>
<rect x="510" y="360" width="15" height="15" fill="#F99700"/>
<rect x="525" y="360" width="15" height="15" fill="#F99700"/>
<rect x="540" y="360" width="15" height="15" fill="#F99700"/>
<rect x="600" y="360" width="15" height="15" fill="#F99700"/>
<rect x="615" y="360" width="15" height="15" fill="#F99700"/>
<rect x="30" y="375" width="15" height="15" fill="#F99700"/>
<rect x="45" y="375" width="15" height="15" fill="#F99700"/>
<rect x="510" y="375" width="15" height="15" fill="#F99700"/>
<rect x="525" y="375" width="15" height="15" fill="#F99700"/>
<rect x="540" y="375" width="15" height="15" fill="#F99700"/>
<rect x="600" y="375" width="15" height="15" fill="#F99700"/>
<rect x="615" y="375" width="15" height="15" fill="#F99700"/>
<rect x="30" y="390" width="15" height="15" fill="#F99700"/>
<rect x="45" y="390" width="15" height="15" fill="#F99700"/>
<rect x="510" y="390" width="15" height="15" fill="#F99700"/>
<rect x="525" y="390" width="15" height="15" fill="#F99700"/>
<rect x="540" y="390" width="15" height="15" fill="#F99700"/>
<rect x="600" y="390" width="15" height="15" fill="#F99700"/>
<rect x="615" y="390" width="15" height="15" fill="#F99700"/>
<rect x="30" y="405" width="15" height="15" fill="#F99700"/>
<rect x="45" y="405" width="15" height="15" fill="#F99700"/>
<rect x="510" y="405" width="15" height="15" fill="#F99700"/>
<rect x="525" y="405" width="15" height="15" fill="#F99700"/>
<rect x="540" y="405" width="15" height="15" fill="#F99700"/>
<rect x="600" y="405" width="15" height="15" fill="#F99700"/>
<rect x="615" y="405" width="15" height="15" fill="#F99700"/>
<rect x="30" y="420" width="15" height="15" fill="#F99700"/>
<rect x="45" y="420" width="15" height="15" fill="#F99700"/>
<rect x="510" y="420" width="15" height="15" fill="#F99700"/>
<rect x="525" y="420" width="15" height="15" fill="#F99700"/>
<rect x="540" y="420" width="15" height="15" fill="#F99700"/>
<rect x="600" y="420" width="15" height="15" fill="#F99700"/>
<rect x="615" y="420" width="15" height="15" fill="#F99700"/>
<rect x="30" y="435" width="15" height="15" fill="#F99700"/>
<rect x="45" y="435" width="15" height="15" fill="#F99700"/>
<rect x="510" y="435" width="15" height="15" fill="#F99700"/>
<rect x="525" y="435" width="15" height="15" fill="#F99700"/>
<rect x="540" y="435" width="15" height="15" fill="#F99700"/>
<rect x="600" y="435" width="15" height="15" fill="#F99700"/>
<rect x="615" y="435" width="15" height="15" fill="#F99700"/>
<rect x="30" y="450" width="15" height="15" fill="#F99700"/>
<rect x="45" y="450" width="15" height="15" fill="#F99700"/>
<rect x="510" y="450" width="15" height="15" fill="#F99700"/>
<rect x="525" y="450" width="15" height="15" fill="#F99700"/>
<rect x="540" y="450" width="15" height="15" fill="#F99700"/>
<rect x="600" y="450" width="15" height="15" fill="#F99700"/>
<rect x="615" y="450" width="15" height="15" fill="#F99700"/>
<rect x="30" y="465" width="15" height="15" fill="#F99700"/>
<rect x="45" y="465" width="15" height="15" fill="#F99700"/>
<rect x="510" y="465" width="15" height="15" fill="#F99700"/>
<rect x="525" y="465" width="15" height="15" fill="#F99700"/>
<rect x="540" y="465" width="15" height="15" fill="#F99700"/>
<rect x="585" y="465" width="15" height="15" fill="#F99700"/>
<rect x="600" y="465" width="15" height="15" fill="#F99700"/>
<rect x="615" y="465" width="15" height="15" fill="#F99700"/>
<rect x="30" y="480" width="15" height="15" fill="#F99700"/>
<rect x="45" y="480" width="15" height="15" fill="#F99700"/>
<rect x="60" y="480" width="15" height="15" fill="#F99700"/>
<rect x="75" y="480" width="15" height="15" fill="#F99700"/>
<rect x="90" y="480" width="15" height="15" fill="#F99700"/>
<rect x="105" y="480" width="15" height="15" fill="#F99700"/>
<rect x="120" y="480" width="15" height="15" fill="#F99700"/>
<rect x="135" y="480" width="15" height="15" fill="#F99700"/>
<rect x="150" y="480" width="15" height="15" fill="#F99700"/>
<rect x="165" y="480" width="15" height="15" fill="#F99700"/>
<rect x="180" y="480" width="15" height="15" fill="#F99700"/>
<rect x="195" y="480" width="15" height="15" fill="#F99700"/>
<rect x="210" y="480" width="15" height="15" fill="#F99700"/>
<rect x="225" y="480" width="15" height="15" fill="#F99700"/>
<rect x="240" y="480" width="15" height="15" fill="#F99700"/>
<rect x="255" y="480" width="15" height="15" fill="#F99700"/>
<rect x="270" y="480" width="15" height="15" fill="#F99700"/>
<rect x="285" y="480" width="15" height="15" fill="#F99700"/>
<rect x="300" y="480" width="15" height="15" fill="#F99700"/>
<rect x="315" y="480" width="15" height="15" fill="#F99700"/>
<rect x="330" y="480" width="15" height="15" fill="#F99700"/>
<rect x="345" y="480" width="15" height="15" fill="#F99700"/>
<rect x="360" y="480" width="15" height="15" fill="#F99700"/>
<rect x="375" y="480" width="15" height="15" fill="#F99700"/>
<rect x="390" y="480" width="15" height="15" fill="#F99700"/>
<rect x="405" y="480" width="15" height="15" fill="#F99700"/>
<rect x="420" y="480" width="15" height="15" fill="#F99700"/>
<rect x="435" y="480" width="15" height="15" fill="#F99700"/>
<rect x="450" y="480" width="15" height="15" fill="#F99700"/>
<rect x="465" y="480" width="15" height="15" fill="#F99700"/>
<rect x="480" y="480" width="15" height="15" fill="#F99700"/>
<rect x="495" y="480" width="15" height="15" fill="#F99700"/>
<rect x="510" y="480" width="15" height="15" fill="#F99700"/>
<rect x="525" y="480" width="15" height="15" fill="#F99700"/>
<rect x="540" y="480" width="15" height="15" fill="#F99700"/>
<rect x="555" y="480" width="15" height="15" fill="#F99700"/>
<rect x="570" y="480" width="15" height="15" fill="#F99700"/>
<rect x="585" y="480" width="15" height="15" fill="#F99700"/>
<rect x="600" y="480" width="15" height="15" fill="#F99700"/>
<rect x="615" y="480" width="15" height="15" fill="#F99700"/>
<rect x="30" y="495" width="15" height="15" fill="#F99700"/>
<rect x="45" y="495" width="15" height="15" fill="#F99700"/>
<rect x="60" y="495" width="15" height="15" fill="#F99700"/>
<rect x="75" y="495" width="15" height="15" fill="#F99700"/>
<rect x="90" y="495" width="15" height="15" fill="#F99700"/>
<rect x="105" y="495" width="15" height="15" fill="#F99700"/>
<rect x="120" y="495" width="15" height="15" fill="#F99700"/>
<rect x="135" y="495" width="15" height="15" fill="#F99700"/>
<rect x="150" y="495" width="15" height="15" fill="#F99700"/>
<rect x="165" y="495" width="15" height="15" fill="#F99700"/>
<rect x="180" y="495" width="15" height="15" fill="#F99700"/>
<rect x="195" y="495" width="15" height="15" fill="#F99700"/>
<rect x="210" y="495" width="15" height="15" fill="#F99700"/>
<rect x="225" y="495" width="15" height="15" fill="#F99700"/>
<rect x="240" y="495" width="15" height="15" fill="#F99700"/>
<rect x="255" y="495" width="15" height="15" fill="#F99700"/>
<rect x="270" y="495" width="15" height="15" fill="#F99700"/>
<rect x="285" y="495" width="15" height="15" fill="#F99700"/>
<rect x="300" y="495" width="15" height="15" fill="#F99700"/>
<rect x="315" y="495" width="15" height="15" fill="#F99700"/>
<rect x="330" y="495" width="15" height="15" fill="#F99700"/>
<rect x="345" y="495" width="15" height="15" fill="#F99700"/>
<rect x="360" y="495" width="15" height="15" fill="#F99700"/>
<rect x="375" y="495" width="15" height="15" fill="#F99700"/>
<rect x="390" y="495" width="15" height="15" fill="#F99700"/>
<rect x="405" y="495" width="15" height="15" fill="#F99700"/>
<rect x="420" y="495" width="15" height="15" fill="#F99700"/>
<rect x="435" y="495" width="15" height="15" fill="#F99700"/>
<rect x="450" y="495" width="15" height="15" fill="#F99700"/>
<rect x="465" y="495" width="15" height="15" fill="#F99700"/>
<rect x="480" y="495" width="15" height="15" fill="#F99700"/>
<rect x="495" y="495" width="15" height="15" fill="#F99700"/>
<rect x="510" y="495" width="15" height="15" fill="#F99700"/>
<rect x="525" y="495" width="15" height="15" fill="#F99700"/>
<rect x="540" y="495" width="15" height="15" fill="#F99700"/>
<rect x="555" y="495" width="15" height="15" fill="#F99700"/>
<rect x="570" y="495" width="15" height="15" fill="#F99700"/>
<rect x="585" y="495" width="15" height="15" fill="#F99700"/>
<rect x="600" y="495" width="15" height="15" fill="#F99700"/>
<rect x="60" y="510" width="15" height="15" fill="#F99700"/>
<rect x="75" y="510" width="15" height="15" fill="#F99700"/>
<rect x="90" y="510" width="15" height="15" fill="#F99700"/>
<rect x="105" y="510" width="15" height="15" fill="#F99700"/>
<rect x="120" y="510" width="15" height="15" fill="#F99700"/>
<rect x="135" y="510" width="15" height="15" fill="#F99700"/>
<rect x="150" y="510" width="15" height="15" fill="#F99700"/>
<rect x="510" y="510" width="15" height="15" fill="#F99700"/>
<rect x="525" y="510" width="15" height="15" fill="#F99700"/>
<rect x="540" y="510" width="15" height="15" fill="#F99700"/>
<rect x="105" y="525" width="15" height="15" fill="#F99700"/>
<rect x="120" y="525" width="15" height="15" fill="#F99700"/>
<rect x="135" y="525" width="15" height="15" fill="#F99700"/>
<rect x="150" y="525" width="15" height="15" fill="#F99700"/>
<rect x="165" y="525" width="15" height="15" fill="#F99700"/>
<rect x="180" y="525" width="15" height="15" fill="#F99700"/>
<rect x="195" y="525" width="15" height="15" fill="#F99700"/>
<rect x="510" y="525" width="15" height="15" fill="#F99700"/>
<rect x="525" y="525" width="15" height="15" fill="#F99700"/>
<rect x="540" y="525" width="15" height="15" fill="#F99700"/>
<rect x="135" y="540" width="15" height="15" fill="#F99700"/>
<rect x="150" y="540" width="15" height="15" fill="#F99700"/>
<rect x="165" y="540" width="15" height="15" fill="#F99700"/>
<rect x="180" y="540" width="15" height="15" fill="#F99700"/>
<rect x="195" y="540" width="15" height="15" fill="#F99700"/>
<rect x="210" y="540" width="15" height="15" fill="#F99700"/>
<rect x="225" y="540" width="15" height="15" fill="#F99700"/>
<rect x="240" y="540" width="15" height="15" fill="#F99700"/>
<rect x="510" y="540" width="15" height="15" fill="#F99700"/>
<rect x="525" y="540" width="15" height="15" fill="#F99700"/>
<rect x="540" y="540" width="15" height="15" fill="#F99700"/>
<rect x="180" y="555" width="15" height="15" fill="#F99700"/>
<rect x="195" y="555" width="15" height="15" fill="#F99700"/>
<rect x="210" y="555" width="15" height="15" fill="#F99700"/>
<rect x="225" y="555" width="15" height="15" fill="#F99700"/>
<rect x="240" y="555" width="15" height="15" fill="#F99700"/>
<rect x="255" y="555" width="15" height="15" fill="#F99700"/>
<rect x="270" y="555" width="15" height="15" fill="#F99700"/>
<rect x="285" y="555" width="15" height="15" fill="#F99700"/>
<rect x="510" y="555" width="15" height="15" fill="#F99700"/>
<rect x="525" y="555" width="15" height="15" fill="#F99700"/>
<rect x="540" y="555" width="15" height="15" fill="#F99700"/>
<rect x="225" y="570" width="15" height="15" fill="#F99700"/>
<rect x="240" y="570" width="15" height="15" fill="#F99700"/>
<rect x="255" y="570" width="15" height="15" fill="#F99700"/>
<rect x="270" y="570" width="15" height="15" fill="#F99700"/>
<rect x="285" y="570" width="15" height="15" fill="#F99700"/>
<rect x="300" y="570" width="15" height="15" fill="#F99700"/>
<rect x="315" y="570" width="15" height="15" fill="#F99700"/>
<rect x="330" y="570" width="15" height="15" fill="#F99700"/>
<rect x="510" y="570" width="15" height="15" fill="#F99700"/>
<rect x="525" y="570" width="15" height="15" fill="#F99700"/>
<rect x="540" y="570" width="15" height="15" fill="#F99700"/>
<rect x="270" y="585" width="15" height="15" fill="#F99700"/>
<rect x="285" y="585" width="15" height="15" fill="#F99700"/>
<rect x="300" y="585" width="15" height="15" fill="#F99700"/>
<rect x="315" y="585" width="15" height="15" fill="#F99700"/>
<rect x="330" y="585" width="15" height="15" fill="#F99700"/>
<rect x="345" y="585" width="15" height="15" fill="#F99700"/>
<rect x="360" y="585" width="15" height="15" fill="#F99700"/>
<rect x="375" y="585" width="15" height="15" fill="#F99700"/>
<rect x="510" y="585" width="15" height="15" fill="#F99700"/>
<rect x="525" y="585" width="15" height="15" fill="#F99700"/>
<rect x="540" y="585" width="15" height="15" fill="#F99700"/>
<rect x="315" y="600" width="15" height="15" fill="#F99700"/>
<rect x="330" y="600" width="15" height="15" fill="#F99700"/>
<rect x="345" y="600" width="15" height="15" fill="#F99700"/>
<rect x="360" y="600" width="15" height="15" fill="#F99700"/>
<rect x="375" y="600" width="15" height="15" fill="#F99700"/>
<rect x="390" y="600" width="15" height="15" fill="#F99700"/>
<rect x="405" y="600" width="15" height="15" fill="#F99700"/>
<rect x="420" y="600" width="15" height="15" fill="#F99700"/>
<rect x="510" y="600" width="15" height="15" fill="#F99700"/>
<rect x="525" y="600" width="15" height="15" fill="#F99700"/>
<rect x="540" y="600" width="15" height="15" fill="#F99700"/>
<rect x="360" y="615" width="15" height="15" fill="#F99700"/>
<rect x="375" y="615" width="15" height="15" fill="#F99700"/>
<rect x="390" y="615" width="15" height="15" fill="#F99700"/>
<rect x="405" y="615" width="15" height="15" fill="#F99700"/>
<rect x="420" y="615" width="15" height="15" fill="#F99700"/>
<rect x="435" y="615" width="15" height="15" fill="#F99700"/>
<rect x="450" y="615" width="15" height="15" fill="#F99700"/>
<rect x="510" y="615" width="15" height="15" fill="#F99700"/>
<rect x="525" y="615" width="15" height="15" fill="#F99700"/>
<rect x="540" y="615" width="15" height="15" fill="#F99700"/>
<rect x="405" y="630" width="15" height="15" fill="#F99700"/>
<rect x="420" y="630" width="15" height="15" fill="#F99700"/>
<rect x="435" y="630" width="15" height="15" fill="#F99700"/>
<rect x="450" y="630" width="15" height="15" fill="#F99700"/>
<rect x="465" y="630" width="15" height="15" fill="#F99700"/>
<rect x="480" y="630" width="15" height="15" fill="#F99700"/>
<rect x="495" y="630" width="15" height="15" fill="#F99700"/>
<rect x="510" y="630" width="15" height="15" fill="#F99700"/>
<rect x="525" y="630" width="15" height="15" fill="#F99700"/>
<rect x="450" y="645" width="15" height="15" fill="#F99700"/>
<rect x="465" y="645" width="15" height="15" fill="#F99700"/>
<rect x="480" y="645" width="15" height="15" fill="#F99700"/>
<rect x="495" y="645" width="15" height="15" fill="#F99700"/>
<rect x="510" y="645" width="15" height="15" fill="#F99700"/>
</svg>